SeN-CEB.ufo
<glyph name="quotedbl" format="2">
  <advance width="370"/>
  <unicode hex="0022"/>
  <outline>
    <contour>
      <point x="313" y="785" type="line"/>
      <point x="199" y="785" type="line"/>
      <point x="213" y="534" type="line"/>
      <point x="297" y="534" type="line"/>
    </contour>
    <contour>
      <point x="174" y="785" type="line"/>
      <point x="59" y="785" type="line"/>
      <point x="77" y="534" type="line"/>
      <point x="160" y="534" type="line"/>
    </contour>
  </outline>
</glyph>
<glyph name="ampersand" format="2">
  <advance width="688"/>
  <unicode hex="0026"/>
  <outline>
    <contour>
      <point x="688" y="-7" type="line"/>
      <point x="560" y="162" type="line"/>
      <point x="646" y="258" type="line"/>
      <point x="571" y="324" type="line"/>
      <point x="499" y="239" type="line"/>
      <point x="368" y="411" type="line"/>
      <point x="368" y="411"/>
      <point x="373" y="415"/>
      <point x="382" y="421" type="curve" smooth="yes"/>
      <point x="390" y="427"/>
      <point x="399" y="434"/>
      <point x="410" y="443" type="curve" smooth="yes"/>
      <point x="434" y="462"/>
      <point x="454" y="485"/>
      <point x="470" y="511" type="curve" smooth="yes"/>
      <point x="485" y="537"/>
      <point x="492" y="562"/>
      <point x="492" y="586" type="curve" smooth="yes"/>
      <point x="491" y="611"/>
      <point x="485" y="633"/>
      <point x="475" y="653" type="curve" smooth="yes"/>
      <point x="464" y="672"/>
      <point x="451" y="688"/>
      <point x="435" y="700" type="curve" smooth="yes"/>
      <point x="418" y="711"/>
      <point x="400" y="720"/>
      <point x="380" y="726" type="curve" smooth="yes"/>
      <point x="359" y="732"/>
      <point x="339" y="735"/>
      <point x="320" y="735" type="curve" smooth="yes"/>
      <point x="294" y="735"/>
      <point x="270" y="730"/>
      <point x="250" y="722" type="curve" smooth="yes"/>
      <point x="229" y="712"/>
      <point x="211" y="700"/>
      <point x="196" y="686" type="curve" smooth="yes"/>
      <point x="182" y="670"/>
      <point x="171" y="653"/>
      <point x="164" y="634" type="curve" smooth="yes"/>
      <point x="156" y="614"/>
      <point x="153" y="592"/>
      <point x="155" y="570" type="curve" smooth="yes"/>
      <point x="157" y="547"/>
      <point x="164" y="524"/>
      <point x="177" y="502" type="curve" smooth="yes"/>
      <point x="189" y="478"/>
      <point x="205" y="453"/>
      <point x="227" y="427" type="curve"/>
      <point x="223" y="424"/>
      <point x="210" y="415"/>
      <point x="187" y="399" type="curve" smooth="yes"/>
      <point x="163" y="382"/>
      <point x="137" y="358"/>
      <point x="108" y="327" type="curve" smooth="yes"/>
      <point x="78" y="297"/>
      <point x="61" y="261"/>
      <point x="55" y="219" type="curve" smooth="yes"/>
      <point x="48" y="176"/>
      <point x="53" y="137"/>
      <point x="69" y="102" type="curve" smooth="yes"/>
      <point x="87" y="61"/>
      <point x="116" y="30"/>
      <point x="154" y="10" type="curve" smooth="yes"/>
      <point x="191" y="-10"/>
      <point x="230" y="-20"/>
      <point x="270" y="-18" type="curve" smooth="yes"/>
      <point x="294" y="-17"/>
      <point x="318" y="-13"/>
      <point x="341" y="-6" type="curve" smooth="yes"/>
      <point x="363" y="2"/>
      <point x="385" y="11"/>
      <point x="405" y="22" type="curve" smooth="yes"/>
      <point x="441" y="44"/>
      <point x="469" y="65"/>
      <point x="489" y="86" type="curve"/>
      <point x="559" y="-7" type="line"/>
    </contour>
    <contour>
      <point x="387" y="592" type="curve" smooth="yes"/>
      <point x="387" y="575"/>
      <point x="381" y="559"/>
      <point x="370" y="544" type="curve" smooth="yes"/>
      <point x="358" y="528"/>
      <point x="346" y="515"/>
      <point x="336" y="505" type="curve" smooth="yes"/>
      <point x="309" y="482" type="line"/>
      <point x="304" y="488"/>
      <point x="295" y="502"/>
      <point x="282" y="524" type="curve" smooth="yes"/>
      <point x="268" y="546"/>
      <point x="262" y="566"/>
      <point x="262" y="586" type="curve" smooth="yes"/>
      <point x="262" y="604"/>
      <point x="268" y="621"/>
      <point x="280" y="635" type="curve" smooth="yes"/>
      <point x="292" y="648"/>
      <point x="305" y="655"/>
      <point x="321" y="655" type="curve" smooth="yes"/>
      <point x="339" y="655"/>
      <point x="354" y="648"/>
      <point x="368" y="636" type="curve" smooth="yes"/>
      <point x="380" y="623"/>
      <point x="387" y="608"/>
    </contour>
    <contour>
      <point x="432" y="160" type="line"/>
      <point x="412" y="137"/>
      <point x="386" y="116"/>
      <point x="354" y="98" type="curve" smooth="yes"/>
      <point x="320" y="78"/>
      <point x="291" y="69"/>
      <point x="267" y="70" type="curve" smooth="yes"/>
      <point x="247" y="70"/>
      <point x="228" y="77"/>
      <point x="209" y="91" type="curve" smooth="yes"/>
      <point x="189" y="104"/>
      <point x="176" y="119"/>
      <point x="169" y="137" type="curve" smooth="yes"/>
      <point x="159" y="161"/>
      <point x="157" y="186"/>
      <point x="163" y="211" type="curve" smooth="yes"/>
      <point x="169" y="235"/>
      <point x="179" y="255"/>
      <point x="193" y="271" type="curve" smooth="yes"/>
      <point x="224" y="307"/>
      <point x="254" y="334"/>
      <point x="284" y="352" type="curve"/>
    </contour>
  </outline>
</glyph>
<glyph name="quotesingle" format="2">
  <advance width="291"/>
  <unicode hex="0027"/>
  <outline>
    <contour>
      <point x="177" y="785" type="line"/>
      <point x="58" y="785" type="line"/>
      <point x="74" y="534" type="line"/>
      <point x="163" y="534" type="line"/>
    </contour>
  </outline>
</glyph>
<glyph name="comma" format="2">
  <advance width="224"/>
  <unicode hex="002C"/>
  <outline>
    <contour>
      <point x="185" y="95" type="line"/>
      <point x="59" y="95" type="line"/>
      <point x="34" y="-157" type="line"/>
      <point x="129" y="-157" type="line"/>
    </contour>
  </outline>
</glyph>
<glyph name="period" format="2">
  <advance width="224"/>
  <unicode hex="002E"/>
  <outline>
    <contour>
      <point x="177" y="-48" type="line"/>
      <point x="177" y="87" type="line"/>
      <point x="47" y="87" type="line"/>
      <point x="47" y="-48" type="line"/>
    </contour>
  </outline>
</glyph>
<glyph name="zero" format="2">
  <advance width="490"/>
  <unicode hex="0030"/>
  <outline>
    <contour>
      <point x="245" y="68" type="curve" smooth="yes"/>
      <point x="232" y="68"/>
      <point x="219" y="73"/>
      <point x="205" y="84" type="curve" smooth="yes"/>
      <point x="191" y="94"/>
      <point x="178" y="112"/>
      <point x="168" y="138" type="curve" smooth="yes"/>
      <point x="158" y="164"/>
      <point x="151" y="196"/>
      <point x="147" y="234" type="curve" smooth="yes"/>
      <point x="141" y="271"/>
      <point x="139" y="310"/>
      <point x="139" y="351" type="curve" smooth="yes"/>
      <point x="139" y="391"/>
      <point x="141" y="430"/>
      <point x="147" y="468" type="curve" smooth="yes"/>
      <point x="152" y="505"/>
      <point x="159" y="537"/>
      <point x="169" y="563" type="curve" smooth="yes"/>
      <point x="179" y="589"/>
      <point x="191" y="608"/>
      <point x="205" y="619" type="curve" smooth="yes"/>
      <point x="219" y="629"/>
      <point x="232" y="634"/>
      <point x="245" y="634" type="curve" smooth="yes"/>
      <point x="257" y="634"/>
      <point x="271" y="629"/>
      <point x="285" y="619" type="curve" smooth="yes"/>
      <point x="299" y="608"/>
      <point x="311" y="589"/>
      <point x="321" y="563" type="curve" smooth="yes"/>
      <point x="330" y="537"/>
      <point x="337" y="505"/>
      <point x="343" y="468" type="curve" smooth="yes"/>
      <point x="348" y="430"/>
      <point x="351" y="391"/>
      <point x="351" y="351" type="curve" smooth="yes"/>
      <point x="351" y="310"/>
      <point x="348" y="271"/>
      <point x="344" y="234" type="curve" smooth="yes"/>
      <point x="338" y="196"/>
      <point x="331" y="164"/>
      <point x="321" y="138" type="curve" smooth="yes"/>
      <point x="311" y="112"/>
      <point x="299" y="94"/>
      <point x="285" y="84" type="curve" smooth="yes"/>
      <point x="271" y="73"/>
      <point x="257" y="68"/>
    </contour>
    <contour>
      <point x="245" y="-25" type="curve" smooth="yes"/>
      <point x="274" y="-25"/>
      <point x="303" y="-16"/>
      <point x="333" y="0" type="curve" smooth="yes"/>
      <point x="362" y="16"/>
      <point x="386" y="42"/>
      <point x="404" y="78" type="curve" smooth="yes"/>
      <point x="422" y="112"/>
      <point x="436" y="154"/>
      <point x="445" y="202" type="curve" smooth="yes"/>
      <point x="453" y="249"/>
      <point x="458" y="299"/>
      <point x="458" y="351" type="curve" smooth="yes"/>
      <point x="458" y="402"/>
      <point x="453" y="452"/>
      <point x="445" y="500" type="curve" smooth="yes"/>
      <point x="436" y="548"/>
      <point x="422" y="589"/>
      <point x="404" y="624" type="curve" smooth="yes"/>
      <point x="385" y="659"/>
      <point x="361" y="685"/>
      <point x="333" y="702" type="curve" smooth="yes"/>
      <point x="303" y="718"/>
      <point x="274" y="727"/>
      <point x="245" y="727" type="curve" smooth="yes"/>
      <point x="215" y="727"/>
      <point x="186" y="718"/>
      <point x="158" y="702" type="curve" smooth="yes"/>
      <point x="128" y="685"/>
      <point x="104" y="659"/>
      <point x="86" y="624" type="curve" smooth="yes"/>
      <point x="67" y="589"/>
      <point x="53" y="548"/>
      <point x="45" y="500" type="curve" smooth="yes"/>
      <point x="36" y="452"/>
      <point x="32" y="402"/>
      <point x="32" y="351" type="curve" smooth="yes"/>
      <point x="32" y="299"/>
      <point x="36" y="249"/>
      <point x="45" y="202" type="curve" smooth="yes"/>
      <point x="53" y="154"/>
      <point x="67" y="112"/>
      <point x="86" y="78" type="curve" smooth="yes"/>
      <point x="104" y="42"/>
      <point x="127" y="16"/>
      <point x="157" y="0" type="curve" smooth="yes"/>
      <point x="186" y="-16"/>
      <point x="215" y="-25"/>
    </contour>
  </outline>
</glyph>
<glyph name="two" format="2">
  <advance width="490"/>
  <unicode hex="0032"/>
  <outline>
    <contour>
      <point x="453" y="-8" type="line"/>
      <point x="453" y="90" type="line"/>
      <point x="183" y="90" type="line"/>
      <point x="225" y="134"/>
      <point x="268" y="184"/>
      <point x="314" y="240" type="curve" smooth="yes"/>
      <point x="359" y="296"/>
      <point x="394" y="351"/>
      <point x="419" y="405" type="curve" smooth="yes"/>
      <point x="425" y="419"/>
      <point x="431" y="437"/>
      <point x="435" y="457" type="curve" smooth="yes"/>
      <point x="438" y="476"/>
      <point x="440" y="496"/>
      <point x="440" y="518" type="curve" smooth="yes"/>
      <point x="440" y="549"/>
      <point x="435" y="577"/>
      <point x="426" y="603" type="curve" smooth="yes"/>
      <point x="416" y="627"/>
      <point x="403" y="649"/>
      <point x="386" y="668" type="curve" smooth="yes"/>
      <point x="369" y="686"/>
      <point x="348" y="700"/>
      <point x="323" y="710" type="curve" smooth="yes"/>
      <point x="297" y="719"/>
      <point x="272" y="724"/>
      <point x="248" y="724" type="curve" smooth="yes"/>
      <point x="208" y="724"/>
      <point x="174" y="716"/>
      <point x="146" y="702" type="curve" smooth="yes"/>
      <point x="117" y="687"/>
      <point x="95" y="669"/>
      <point x="81" y="648" type="curve" smooth="yes"/>
      <point x="57" y="610"/>
      <point x="45" y="562"/>
      <point x="45" y="502" type="curve"/>
      <point x="153" y="502" type="line"/>
      <point x="153" y="550"/>
      <point x="160" y="584"/>
      <point x="176" y="605" type="curve" smooth="yes"/>
      <point x="191" y="625"/>
      <point x="214" y="635"/>
      <point x="246" y="635" type="curve" smooth="yes"/>
      <point x="261" y="635"/>
      <point x="274" y="631"/>
      <point x="286" y="624" type="curve" smooth="yes"/>
      <point x="296" y="616"/>
      <point x="305" y="606"/>
      <point x="313" y="595" type="curve" smooth="yes"/>
      <point x="319" y="583"/>
      <point x="325" y="570"/>
      <point x="329" y="555" type="curve" smooth="yes"/>
      <point x="332" y="539"/>
      <point x="334" y="527"/>
      <point x="334" y="518" type="curve" smooth="yes"/>
      <point x="334" y="490"/>
      <point x="329" y="462"/>
      <point x="319" y="435" type="curve" smooth="yes"/>
      <point x="306" y="396"/>
      <point x="267" y="336"/>
      <point x="203" y="256" type="curve" smooth="yes"/>
      <point x="137" y="174"/>
      <point x="85" y="116"/>
      <point x="46" y="82" type="curve"/>
      <point x="46" y="-8" type="line"/>
    </contour>
  </outline>
</glyph>
<glyph name="four" format="2">
  <advance width="490"/>
  <unicode hex="0034"/>
  <outline>
    <contour>
      <point x="477" y="177" type="line"/>
      <point x="477" y="275" type="line"/>
      <point x="377" y="275" type="line"/>
      <point x="377" y="724" type="line"/>
      <point x="285" y="724" type="line"/>
      <point x="14" y="258" type="line"/>
      <point x="14" y="177" type="line"/>
      <point x="275" y="177" type="line"/>
      <point x="275" y="-11" type="line"/>
      <point x="377" y="-11" type="line"/>
      <point x="377" y="177" type="line"/>
    </contour>
    <contour>
      <point x="275" y="275" type="line"/>
      <point x="130" y="275" type="line"/>
      <point x="275" y="525" type="line"/>
    </contour>
  </outline>
</glyph>
<glyph name="seven" format="2">
  <advance width="490"/>
  <unicode hex="0037"/>
  <outline>
    <contour>
      <point x="451" y="625" type="line"/>
      <point x="451" y="709" type="line"/>
      <point x="37" y="709" type="line"/>
      <point x="37" y="609" type="line"/>
      <point x="335" y="609" type="line"/>
      <point x="103" y="-16" type="line"/>
      <point x="214" y="-16" type="line"/>
    </contour>
  </outline>
</glyph>
<glyph name="equal" format="2">
  <advance width="524"/>
  <unicode hex="003D"/>
  <outline>
    <contour>
      <point x="485" y="422" type="line"/>
      <point x="485" y="515" type="line"/>
      <point x="38" y="515" type="line"/>
      <point x="38" y="422" type="line"/>
    </contour>
    <contour>
      <point x="485" y="210" type="line"/>
      <point x="485" y="303" type="line"/>
      <point x="38" y="303" type="line"/>
      <point x="38" y="210" type="line"/>
    </contour>
  </outline>
</glyph>
<glyph name="F" format="2">
  <advance width="457"/>
  <unicode hex="0046"/>
  <outline>
    <contour>
      <point x="438" y="624" type="line"/>
      <point x="438" y="721" type="line"/>
      <point x="54" y="721" type="line"/>
      <point x="54" y="-8" type="line"/>
      <point x="160" y="-8" type="line"/>
      <point x="160" y="324" type="line"/>
      <point x="428" y="324" type="line"/>
      <point x="428" y="421" type="line"/>
      <point x="160" y="421" type="line"/>
      <point x="160" y="624" type="line"/>
    </contour>
  </outline>
</glyph>
<glyph name="J" format="2">
  <advance width="343"/>
  <unicode hex="004A"/>
  <outline>
    <contour>
      <point x="289" y="160" type="curve" smooth="yes"/>
      <point x="289" y="721" type="line"/>
      <point x="183" y="721" type="line"/>
      <point x="183" y="174" type="line" smooth="yes"/>
      <point x="183" y="154"/>
      <point x="180" y="138"/>
      <point x="176" y="127" type="curve" smooth="yes"/>
      <point x="171" y="115"/>
      <point x="166" y="106"/>
      <point x="160" y="100" type="curve" smooth="yes"/>
      <point x="150" y="90"/>
      <point x="141" y="84"/>
      <point x="131" y="82" type="curve" smooth="yes"/>
      <point x="120" y="78"/>
      <point x="109" y="77"/>
      <point x="98" y="77" type="curve" smooth="yes"/>
      <point x="84" y="77"/>
      <point x="70" y="79"/>
      <point x="55" y="83" type="curve" smooth="yes"/>
      <point x="39" y="86"/>
      <point x="19" y="92"/>
      <point x="-5" y="102" type="curve"/>
      <point x="-5" y="-3" type="line"/>
      <point x="14" y="-9"/>
      <point x="32" y="-14"/>
      <point x="48" y="-16" type="curve" smooth="yes"/>
      <point x="63" y="-18"/>
      <point x="78" y="-19"/>
      <point x="92" y="-19" type="curve" smooth="yes"/>
      <point x="132" y="-19"/>
      <point x="164" y="-13"/>
      <point x="190" y="-3" type="curve" smooth="yes"/>
      <point x="214" y="8"/>
      <point x="234" y="23"/>
      <point x="250" y="41" type="curve" smooth="yes"/>
      <point x="263" y="57"/>
      <point x="273" y="76"/>
      <point x="280" y="98" type="curve" smooth="yes"/>
      <point x="286" y="120"/>
      <point x="289" y="140"/>
    </contour>
  </outline>
</glyph>
<glyph name="N" format="2">
  <advance width="579"/>
  <unicode hex="004E"/>
  <outline>
    <contour>
      <point x="525" y="-8" type="line"/>
      <point x="525" y="721" type="line"/>
      <point x="423" y="721" type="line"/>
      <point x="423" y="178" type="line"/>
      <point x="167" y="721" type="line"/>
      <point x="54" y="721" type="line"/>
      <point x="54" y="-8" type="line"/>
      <point x="156" y="-8" type="line"/>
      <point x="156" y="534" type="line"/>
      <point x="411" y="-8" type="line"/>
    </contour>
  </outline>
</glyph>
<glyph name="P" format="2">
  <advance width="512"/>
  <unicode hex="0050"/>
  <outline>
    <contour>
      <point x="493" y="501" type="curve" smooth="yes"/>
      <point x="493" y="541"/>
      <point x="485" y="576"/>
      <point x="471" y="606" type="curve" smooth="yes"/>
      <point x="455" y="635"/>
      <point x="435" y="658"/>
      <point x="410" y="675" type="curve" smooth="yes"/>
      <point x="386" y="689"/>
      <point x="361" y="701"/>
      <point x="333" y="709" type="curve" smooth="yes"/>
      <point x="304" y="717"/>
      <point x="274" y="721"/>
      <point x="243" y="721" type="curve" smooth="yes"/>
      <point x="54" y="721" type="line"/>
      <point x="54" y="-8" type="line"/>
      <point x="160" y="-8" type="line"/>
      <point x="160" y="625" type="line"/>
      <point x="245" y="625" type="line" smooth="yes"/>
      <point x="261" y="625"/>
      <point x="277" y="623"/>
      <point x="295" y="619" type="curve" smooth="yes"/>
      <point x="311" y="615"/>
      <point x="326" y="607"/>
      <point x="340" y="597" type="curve" smooth="yes"/>
      <point x="352" y="588"/>
      <point x="363" y="576"/>
      <point x="373" y="562" type="curve" smooth="yes"/>
      <point x="382" y="546"/>
      <point x="387" y="526"/>
      <point x="387" y="501" type="curve" smooth="yes"/>
      <point x="387" y="480"/>
      <point x="382" y="461"/>
      <point x="374" y="445" type="curve" smooth="yes"/>
      <point x="364" y="428"/>
      <point x="353" y="415"/>
      <point x="340" y="405" type="curve" smooth="yes"/>
      <point x="328" y="395"/>
      <point x="314" y="389"/>
      <point x="297" y="386" type="curve" smooth="yes"/>
      <point x="279" y="382"/>
      <point x="260" y="381"/>
      <point x="238" y="381" type="curve" smooth="yes"/>
      <point x="182" y="381" type="line"/>
      <point x="182" y="281" type="line"/>
      <point x="240" y="281" type="line" smooth="yes"/>
      <point x="273" y="281"/>
      <point x="304" y="285"/>
      <point x="334" y="293" type="curve" smooth="yes"/>
      <point x="362" y="300"/>
      <point x="389" y="312"/>
      <point x="413" y="329" type="curve" smooth="yes"/>
      <point x="436" y="346"/>
      <point x="455" y="370"/>
      <point x="471" y="400" type="curve" smooth="yes"/>
      <point x="485" y="429"/>
      <point x="493" y="463"/>
    </contour>
  </outline>
</glyph>
<glyph name="Q" format="2">
  <advance width="670"/>
  <unicode hex="0051"/>
  <outline>
    <contour>
      <point x="531" y="73" type="line"/>
      <point x="534" y="77"/>
      <point x="538" y="82"/>
      <point x="542" y="87" type="curve" smooth="yes"/>
      <point x="568" y="121"/>
      <point x="589" y="161"/>
      <point x="603" y="209" type="curve" smooth="yes"/>
      <point x="617" y="256"/>
      <point x="624" y="305"/>
      <point x="624" y="357" type="curve" smooth="yes"/>
      <point x="624" y="408"/>
      <point x="617" y="457"/>
      <point x="603" y="505" type="curve" smooth="yes"/>
      <point x="589" y="552"/>
      <point x="568" y="593"/>
      <point x="542" y="628" type="curve" smooth="yes"/>
      <point x="515" y="662"/>
      <point x="483" y="688"/>
      <point x="445" y="707" type="curve" smooth="yes"/>
      <point x="406" y="725"/>
      <point x="366" y="734"/>
      <point x="325" y="734" type="curve" smooth="yes"/>
      <point x="283" y="734"/>
      <point x="244" y="725"/>
      <point x="206" y="707" type="curve" smooth="yes"/>
      <point x="167" y="688"/>
      <point x="134" y="662"/>
      <point x="108" y="628" type="curve" smooth="yes"/>
      <point x="81" y="593"/>
      <point x="61" y="552"/>
      <point x="47" y="505" type="curve" smooth="yes"/>
      <point x="33" y="457"/>
      <point x="26" y="408"/>
      <point x="26" y="357" type="curve" smooth="yes"/>
      <point x="26" y="305"/>
      <point x="33" y="256"/>
      <point x="47" y="209" type="curve" smooth="yes"/>
      <point x="61" y="161"/>
      <point x="81" y="121"/>
      <point x="108" y="87" type="curve" smooth="yes"/>
      <point x="134" y="52"/>
      <point x="167" y="26"/>
      <point x="206" y="8" type="curve" smooth="yes"/>
      <point x="244" y="-10"/>
      <point x="283" y="-19"/>
      <point x="325" y="-19" type="curve" smooth="yes"/>
      <point x="351" y="-19"/>
      <point x="377" y="-15"/>
      <point x="402" y="-8" type="curve"/>
      <point x="668" y="-8" type="line"/>
      <point x="668" y="85" type="line"/>
      <point x="626" y="77"/>
      <point x="581" y="73"/>
      <point x="535" y="73" type="curve" smooth="yes"/>
    </contour>
    <contour>
      <point x="517" y="357" type="curve" smooth="yes"/>
      <point x="517" y="317"/>
      <point x="512" y="279"/>
      <point x="503" y="243" type="curve" smooth="yes"/>
      <point x="493" y="206"/>
      <point x="479" y="175"/>
      <point x="461" y="150" type="curve" smooth="yes"/>
      <point x="444" y="124"/>
      <point x="424" y="105"/>
      <point x="400" y="93" type="curve" smooth="yes"/>
      <point x="375" y="80"/>
      <point x="350" y="74"/>
      <point x="325" y="74" type="curve" smooth="yes"/>
      <point x="299" y="74"/>
      <point x="275" y="80"/>
      <point x="251" y="93" type="curve" smooth="yes"/>
      <point x="226" y="105"/>
      <point x="205" y="124"/>
      <point x="189" y="150" type="curve" smooth="yes"/>
      <point x="171" y="175"/>
      <point x="157" y="206"/>
      <point x="148" y="243" type="curve" smooth="yes"/>
      <point x="138" y="279"/>
      <point x="133" y="317"/>
      <point x="133" y="357" type="curve" smooth="yes"/>
      <point x="133" y="396"/>
      <point x="138" y="434"/>
      <point x="148" y="472" type="curve" smooth="yes"/>
      <point x="157" y="508"/>
      <point x="171" y="539"/>
      <point x="189" y="565" type="curve" smooth="yes"/>
      <point x="205" y="590"/>
      <point x="226" y="609"/>
      <point x="251" y="622" type="curve" smooth="yes"/>
      <point x="275" y="634"/>
      <point x="299" y="641"/>
      <point x="325" y="641" type="curve" smooth="yes"/>
      <point x="350" y="641"/>
      <point x="375" y="634"/>
      <point x="400" y="622" type="curve" smooth="yes"/>
      <point x="424" y="609"/>
      <point x="444" y="590"/>
      <point x="461" y="565" type="curve" smooth="yes"/>
      <point x="479" y="539"/>
      <point x="493" y="508"/>
      <point x="503" y="472" type="curve" smooth="yes"/>
      <point x="512" y="434"/>
      <point x="517" y="396"/>
    </contour>
  </outline>
</glyph>
<glyph name="R" format="2">
  <advance width="522"/>
  <unicode hex="0052"/>
  <outline>
    <contour>
      <point x="493" y="507" type="curve" smooth="yes"/>
      <point x="493" y="547"/>
      <point x="485" y="581"/>
      <point x="471" y="609" type="curve" smooth="yes"/>
      <point x="455" y="635"/>
      <point x="435" y="657"/>
      <point x="411" y="675" type="curve" smooth="yes"/>
      <point x="387" y="689"/>
      <point x="361" y="701"/>
      <point x="333" y="709" type="curve" smooth="yes"/>
      <point x="304" y="717"/>
      <point x="274" y="721"/>
      <point x="243" y="721" type="curve" smooth="yes"/>
      <point x="54" y="721" type="line"/>
      <point x="54" y="-8" type="line"/>
      <point x="160" y="-8" type="line"/>
      <point x="160" y="291" type="line"/>
      <point x="182" y="291" type="line"/>
      <point x="234" y="291" type="line" smooth="yes"/>
      <point x="273" y="291"/>
      <point x="307" y="270"/>
      <point x="335" y="229" type="curve" smooth="yes"/>
      <point x="361" y="191"/>
      <point x="383" y="112"/>
      <point x="401" y="-8" type="curve"/>
      <point x="512" y="-8" type="line"/>
      <point x="497" y="84"/>
      <point x="478" y="162"/>
      <point x="455" y="226" type="curve" smooth="yes"/>
      <point x="437" y="276"/>
      <point x="411" y="310"/>
      <point x="377" y="330" type="curve"/>
      <point x="386" y="334"/>
      <point x="398" y="340"/>
      <point x="412" y="349" type="curve" smooth="yes"/>
      <point x="436" y="365"/>
      <point x="455" y="387"/>
      <point x="471" y="415" type="curve" smooth="yes"/>
      <point x="485" y="442"/>
      <point x="493" y="473"/>
    </contour>
    <contour>
      <point x="160" y="391" type="line"/>
      <point x="160" y="625" type="line"/>
      <point x="245" y="625" type="line" smooth="yes"/>
      <point x="261" y="625"/>
      <point x="277" y="623"/>
      <point x="295" y="619" type="curve" smooth="yes"/>
      <point x="311" y="614"/>
      <point x="327" y="607"/>
      <point x="341" y="598" type="curve" smooth="yes"/>
      <point x="353" y="589"/>
      <point x="364" y="577"/>
      <point x="374" y="563" type="curve" smooth="yes"/>
      <point x="382" y="547"/>
      <point x="387" y="529"/>
      <point x="387" y="507" type="curve" smooth="yes"/>
      <point x="387" y="487"/>
      <point x="382" y="469"/>
      <point x="374" y="454" type="curve" smooth="yes"/>
      <point x="364" y="438"/>
      <point x="353" y="425"/>
      <point x="341" y="417" type="curve" smooth="yes"/>
      <point x="328" y="407"/>
      <point x="313" y="400"/>
      <point x="297" y="397" type="curve" smooth="yes"/>
      <point x="279" y="393"/>
      <point x="260" y="391"/>
      <point x="238" y="391" type="curve" smooth="yes"/>
      <point x="182" y="391" type="line"/>
    </contour>
  </outline>
</glyph>
<glyph name="Y" format="2">
  <advance width="540"/>
  <unicode hex="0059"/>
  <outline>
    <contour>
      <point x="269" y="431" type="line"/>
      <point x="118" y="721" type="line"/>
      <point x="2" y="721" type="line"/>
      <point x="217" y="323" type="line"/>
      <point x="217" y="-8" type="line"/>
      <point x="323" y="-8" type="line"/>
      <point x="323" y="323" type="line"/>
      <point x="538" y="721" type="line"/>
      <point x="421" y="721" type="line"/>
    </contour>
  </outline>
</glyph>
<glyph name="bracketleft" format="2">
  <advance width="318"/>
  <unicode hex="005B"/>
  <outline>
    <contour>
      <point x="296" y="-147" type="line"/>
      <point x="296" y="-59" type="line"/>
      <point x="199" y="-59" type="line"/>
      <point x="199" y="718" type="line"/>
      <point x="296" y="718" type="line"/>
      <point x="296" y="806" type="line"/>
      <point x="96" y="806" type="line"/>
      <point x="96" y="-147" type="line"/>
    </contour>
  </outline>
</glyph>
<glyph name="backslash" format="2">
  <advance width="890"/>
  <unicode hex="005C"/>
  <outline>
    <contour>
      <point x="858" y="341" type="line"/>
      <point x="858" y="422" type="line"/>
      <point x="738" y="422" type="line"/>
      <point x="788" y="696" type="line"/>
      <point x="691" y="696" type="line"/>
      <point x="644" y="422" type="line"/>
      <point x="552" y="422" type="line"/>
      <point x="496" y="696" type="line"/>
      <point x="399" y="696" type="line"/>
      <point x="343" y="422" type="line"/>
      <point x="251" y="422" type="line"/>
      <point x="204" y="696" type="line"/>
      <point x="107" y="696" type="line"/>
      <point x="157" y="422" type="line"/>
      <point x="38" y="422" type="line"/>
      <point x="38" y="341" type="line"/>
      <point x="172" y="341" type="line"/>
      <point x="235" y="-8" type="line"/>
      <point x="340" y="-8" type="line"/>
      <point x="412" y="341" type="line"/>
      <point x="482" y="341" type="line"/>
      <point x="556" y="-8" type="line"/>
      <point x="660" y="-8" type="line"/>
      <point x="723" y="341" type="line"/>
    </contour>
    <contour>
      <point x="630" y="341" type="line"/>
      <point x="602" y="179" type="line"/>
      <point x="569" y="341" type="line"/>
    </contour>
    <contour>
      <point x="326" y="341" type="line"/>
      <point x="293" y="179" type="line"/>
      <point x="265" y="341" type="line"/>
    </contour>
    <contour>
      <point x="429" y="422" type="line"/>
      <point x="447" y="508" type="line"/>
      <point x="465" y="422" type="line"/>
    </contour>
  </outline>
</glyph>
<glyph name="bracketright" format="2">
  <advance width="318"/>
  <unicode hex="005D"/>
  <outline>
    <contour>
      <point x="223" y="-147" type="line"/>
      <point x="223" y="806" type="line"/>
      <point x="22" y="806" type="line"/>
      <point x="22" y="718" type="line"/>
      <point x="119" y="718" type="line"/>
      <point x="119" y="-59" type="line"/>
      <point x="22" y="-59" type="line"/>
      <point x="22" y="-147" type="line"/>
    </contour>
  </outline>
</glyph>
<glyph name="grave" format="2">
  <advance width="274"/>
  <unicode hex="0060"/>
  <outline>
    <contour>
      <point x="215" y="529" type="line"/>
      <point x="150" y="727" type="line"/>
      <point x="30" y="727" type="line"/>
      <point x="122" y="529" type="line"/>
    </contour>
  </outline>
</glyph>
<glyph name="b" format="2">
  <advance width="500"/>
  <unicode hex="0062"/>
  <outline>
    <contour>
      <point x="370" y="252" type="curve" smooth="yes"/>
      <point x="370" y="226"/>
      <point x="367" y="202"/>
      <point x="362" y="178" type="curve" smooth="yes"/>
      <point x="356" y="154"/>
      <point x="348" y="133"/>
      <point x="338" y="117" type="curve" smooth="yes"/>
      <point x="328" y="101"/>
      <point x="317" y="89"/>
      <point x="303" y="82" type="curve" smooth="yes"/>
      <point x="288" y="74"/>
      <point x="274" y="70"/>
      <point x="261" y="70" type="curve" smooth="yes"/>
      <point x="247" y="70"/>
      <point x="234" y="74"/>
      <point x="220" y="82" type="curve" smooth="yes"/>
      <point x="206" y="89"/>
      <point x="194" y="101"/>
      <point x="185" y="117" type="curve" smooth="yes"/>
      <point x="175" y="133"/>
      <point x="167" y="154"/>
      <point x="162" y="178" type="curve" smooth="yes"/>
      <point x="156" y="202"/>
      <point x="153" y="226"/>
      <point x="153" y="252" type="curve" smooth="yes"/>
      <point x="153" y="277"/>
      <point x="156" y="301"/>
      <point x="162" y="325" type="curve" smooth="yes"/>
      <point x="168" y="347"/>
      <point x="176" y="367"/>
      <point x="187" y="384" type="curve" smooth="yes"/>
      <point x="196" y="398"/>
      <point x="207" y="410"/>
      <point x="221" y="420" type="curve" smooth="yes"/>
      <point x="234" y="429"/>
      <point x="247" y="434"/>
      <point x="261" y="434" type="curve" smooth="yes"/>
      <point x="274" y="434"/>
      <point x="288" y="430"/>
      <point x="302" y="422" type="curve" smooth="yes"/>
      <point x="316" y="414"/>
      <point x="328" y="402"/>
      <point x="338" y="387" type="curve" smooth="yes"/>
      <point x="348" y="370"/>
      <point x="356" y="350"/>
      <point x="362" y="326" type="curve" smooth="yes"/>
      <point x="367" y="302"/>
      <point x="370" y="277"/>
    </contour>
    <contour>
      <point x="262" y="-19" type="curve" smooth="yes"/>
      <point x="296" y="-19"/>
      <point x="326" y="-13"/>
      <point x="354" y="-1" type="curve" smooth="yes"/>
      <point x="381" y="11"/>
      <point x="403" y="29"/>
      <point x="421" y="53" type="curve" smooth="yes"/>
      <point x="438" y="75"/>
      <point x="452" y="104"/>
      <point x="462" y="140" type="curve" smooth="yes"/>
      <point x="471" y="174"/>
      <point x="476" y="213"/>
      <point x="476" y="257" type="curve" smooth="yes"/>
      <point x="476" y="291"/>
      <point x="472" y="324"/>
      <point x="464" y="356" type="curve" smooth="yes"/>
      <point x="456" y="388"/>
      <point x="444" y="416"/>
      <point x="428" y="442" type="curve" smooth="yes"/>
      <point x="410" y="466"/>
      <point x="387" y="486"/>
      <point x="359" y="502" type="curve" smooth="yes"/>
      <point x="331" y="516"/>
      <point x="300" y="524"/>
      <point x="267" y="524" type="curve" smooth="yes"/>
      <point x="221" y="524"/>
      <point x="182" y="504"/>
      <point x="152" y="466" type="curve"/>
      <point x="152" y="721" type="line"/>
      <point x="49" y="721" type="line"/>
      <point x="49" y="257" type="line" smooth="yes"/>
      <point x="49" y="213"/>
      <point x="54" y="174"/>
      <point x="64" y="140" type="curve" smooth="yes"/>
      <point x="73" y="104"/>
      <point x="86" y="75"/>
      <point x="104" y="53" type="curve" smooth="yes"/>
      <point x="121" y="29"/>
      <point x="143" y="11"/>
      <point x="170" y="-1" type="curve" smooth="yes"/>
      <point x="196" y="-13"/>
      <point x="227" y="-19"/>
    </contour>
  </outline>
</glyph>
<glyph name="e" format="2">
  <advance width="472"/>
  <unicode hex="0065"/>
  <outline>
    <contour>
      <point x="134" y="303" type="line"/>
      <point x="138" y="339"/>
      <point x="149" y="368"/>
      <point x="167" y="390" type="curve" smooth="yes"/>
      <point x="189" y="420"/>
      <point x="217" y="435"/>
      <point x="250" y="435" type="curve" smooth="yes"/>
      <point x="266" y="435"/>
      <point x="280" y="431"/>
      <point x="292" y="424" type="curve" smooth="yes"/>
      <point x="304" y="416"/>
      <point x="313" y="406"/>
      <point x="320" y="394" type="curve" smooth="yes"/>
      <point x="332" y="368"/>
      <point x="338" y="338"/>
      <point x="338" y="303" type="curve"/>
    </contour>
    <contour>
      <point x="137" y="214" type="curve"/>
      <point x="444" y="214" type="line"/>
      <point x="444" y="272" type="line" smooth="yes"/>
      <point x="444" y="354"/>
      <point x="429" y="415"/>
      <point x="401" y="453" type="curve" smooth="yes"/>
      <point x="385" y="473"/>
      <point x="364" y="490"/>
      <point x="337" y="504" type="curve" smooth="yes"/>
      <point x="309" y="517"/>
      <point x="280" y="524"/>
      <point x="250" y="524" type="curve" smooth="yes"/>
      <point x="212" y="524"/>
      <point x="180" y="517"/>
      <point x="152" y="503" type="curve" smooth="yes"/>
      <point x="124" y="489"/>
      <point x="100" y="470"/>
      <point x="82" y="448" type="curve" smooth="yes"/>
      <point x="63" y="425"/>
      <point x="49" y="398"/>
      <point x="39" y="367" type="curve" smooth="yes"/>
      <point x="29" y="335"/>
      <point x="24" y="300"/>
      <point x="24" y="263" type="curve" smooth="yes"/>
      <point x="24" y="217"/>
      <point x="30" y="176"/>
      <point x="44" y="142" type="curve" smooth="yes"/>
      <point x="57" y="106"/>
      <point x="74" y="77"/>
      <point x="94" y="54" type="curve" smooth="yes"/>
      <point x="110" y="35"/>
      <point x="132" y="19"/>
      <point x="160" y="6" type="curve" smooth="yes"/>
      <point x="186" y="-7"/>
      <point x="213" y="-15"/>
      <point x="241" y="-18" type="curve" smooth="yes"/>
      <point x="272" y="-21"/>
      <point x="303" y="-20"/>
      <point x="335" y="-15" type="curve" smooth="yes"/>
      <point x="366" y="-9"/>
      <point x="398" y="2"/>
      <point x="430" y="22" type="curve"/>
      <point x="430" y="114" type="line"/>
      <point x="393" y="93"/>
      <point x="364" y="81"/>
      <point x="343" y="77" type="curve" smooth="yes"/>
      <point x="321" y="73"/>
      <point x="304" y="71"/>
      <point x="291" y="71" type="curve" smooth="yes"/>
      <point x="273" y="71"/>
      <point x="257" y="73"/>
      <point x="244" y="77" type="curve" smooth="yes"/>
      <point x="230" y="80"/>
      <point x="221" y="84"/>
      <point x="215" y="88" type="curve" smooth="yes"/>
      <point x="197" y="100"/>
      <point x="182" y="113"/>
      <point x="171" y="129" type="curve" smooth="yes"/>
      <point x="159" y="144"/>
      <point x="151" y="160"/>
      <point x="146" y="177" type="curve" smooth="yes"/>
      <point x="142" y="189"/>
      <point x="139" y="201"/>
    </contour>
  </outline>
</glyph>
<glyph name="g" format="2">
  <advance width="500"/>
  <unicode hex="0067"/>
  <outline>
    <contour>
      <point x="129" y="262" type="curve" smooth="yes"/>
      <point x="129" y="287"/>
      <point x="132" y="310"/>
      <point x="138" y="330" type="curve" smooth="yes"/>
      <point x="143" y="349"/>
      <point x="151" y="367"/>
      <point x="163" y="385" type="curve" smooth="yes"/>
      <point x="173" y="400"/>
      <point x="184" y="412"/>
      <point x="198" y="421" type="curve" smooth="yes"/>
      <point x="211" y="429"/>
      <point x="224" y="434"/>
      <point x="238" y="434" type="curve" smooth="yes"/>
      <point x="251" y="434"/>
      <point x="264" y="429"/>
      <point x="278" y="420" type="curve" smooth="yes"/>
      <point x="291" y="410"/>
      <point x="303" y="398"/>
      <point x="313" y="384" type="curve" smooth="yes"/>
      <point x="324" y="367"/>
      <point x="333" y="349"/>
      <point x="339" y="330" type="curve" smooth="yes"/>
      <point x="344" y="310"/>
      <point x="347" y="287"/>
      <point x="347" y="262" type="curve" smooth="yes"/>
      <point x="347" y="236"/>
      <point x="344" y="214"/>
      <point x="338" y="194" type="curve" smooth="yes"/>
      <point x="332" y="173"/>
      <point x="323" y="155"/>
      <point x="313" y="140" type="curve" smooth="yes"/>
      <point x="303" y="124"/>
      <point x="291" y="112"/>
      <point x="278" y="104" type="curve" smooth="yes"/>
      <point x="264" y="94"/>
      <point x="251" y="90"/>
      <point x="238" y="90" type="curve" smooth="yes"/>
      <point x="224" y="90"/>
      <point x="211" y="94"/>
      <point x="198" y="103" type="curve" smooth="yes"/>
      <point x="184" y="111"/>
      <point x="173" y="123"/>
      <point x="163" y="140" type="curve" smooth="yes"/>
      <point x="152" y="156"/>
      <point x="144" y="174"/>
      <point x="138" y="194" type="curve" smooth="yes"/>
      <point x="132" y="214"/>
      <point x="129" y="236"/>
    </contour>
    <contour>
      <point x="451" y="54" type="curve" smooth="yes"/>
      <point x="451" y="512" type="line"/>
      <point x="348" y="512" type="line"/>
      <point x="348" y="465" type="line"/>
      <point x="320" y="504"/>
      <point x="281" y="524"/>
      <point x="233" y="524" type="curve" smooth="yes"/>
      <point x="199" y="524"/>
      <point x="169" y="516"/>
      <point x="141" y="501" type="curve" smooth="yes"/>
      <point x="113" y="485"/>
      <point x="90" y="464"/>
      <point x="74" y="440" type="curve" smooth="yes"/>
      <point x="57" y="414"/>
      <point x="44" y="388"/>
      <point x="36" y="360" type="curve" smooth="yes"/>
      <point x="27" y="332"/>
      <point x="23" y="301"/>
      <point x="23" y="267" type="curve" smooth="yes"/>
      <point x="23" y="223"/>
      <point x="28" y="186"/>
      <point x="39" y="155" type="curve" smooth="yes"/>
      <point x="49" y="123"/>
      <point x="63" y="97"/>
      <point x="80" y="75" type="curve" smooth="yes"/>
      <point x="97" y="51"/>
      <point x="119" y="32"/>
      <point x="146" y="20" type="curve" smooth="yes"/>
      <point x="172" y="7"/>
      <point x="199" y="1"/>
      <point x="228" y="1" type="curve" smooth="yes"/>
      <point x="259" y="1"/>
      <point x="286" y="8"/>
      <point x="309" y="24" type="curve" smooth="yes"/>
      <point x="331" y="38"/>
      <point x="344" y="49"/>
      <point x="348" y="57" type="curve"/>
      <point x="348" y="41"/>
      <point x="347" y="28"/>
      <point x="346" y="17" type="curve" smooth="yes"/>
      <point x="343" y="-13"/>
      <point x="331" y="-36"/>
      <point x="311" y="-50" type="curve" smooth="yes"/>
      <point x="290" y="-64"/>
      <point x="260" y="-71"/>
      <point x="221" y="-71" type="curve" smooth="yes"/>
      <point x="198" y="-71"/>
      <point x="174" y="-68"/>
      <point x="148" y="-63" type="curve" smooth="yes"/>
      <point x="121" y="-57"/>
      <point x="91" y="-45"/>
      <point x="58" y="-27" type="curve"/>
      <point x="58" y="-137" type="line"/>
      <point x="80" y="-147"/>
      <point x="105" y="-155"/>
      <point x="135" y="-160" type="curve" smooth="yes"/>
      <point x="164" y="-164"/>
      <point x="190" y="-166"/>
      <point x="214" y="-166" type="curve" smooth="yes"/>
      <point x="288" y="-166"/>
      <point x="346" y="-149"/>
      <point x="388" y="-115" type="curve" smooth="yes"/>
      <point x="427" y="-83"/>
      <point x="448" y="-27"/>
    </contour>
  </outline>
</glyph>
<glyph name="j" format="2">
  <advance width="238"/>
  <unicode hex="006A"/>
  <outline>
    <contour>
      <point x="197" y="595" type="line"/>
      <point x="197" y="721" type="line"/>
      <point x="77" y="721" type="line"/>
      <point x="77" y="595" type="line"/>
    </contour>
    <contour>
      <point x="189" y="16" type="line"/>
      <point x="189" y="512" type="line"/>
      <point x="85" y="512" type="line"/>
      <point x="85" y="22" type="line" smooth="yes"/>
      <point x="85" y="-24"/>
      <point x="69" y="-54"/>
      <point x="39" y="-66" type="curve" smooth="yes"/>
      <point x="28" y="-70"/>
      <point x="3" y="-71"/>
      <point x="-36" y="-70" type="curve"/>
      <point x="-36" y="-166" type="line"/>
      <point x="0" y="-166"/>
      <point x="31" y="-164"/>
      <point x="59" y="-160" type="curve" smooth="yes"/>
      <point x="86" y="-155"/>
      <point x="110" y="-145"/>
      <point x="131" y="-130" type="curve" smooth="yes"/>
      <point x="151" y="-114"/>
      <point x="165" y="-93"/>
      <point x="175" y="-67" type="curve" smooth="yes"/>
      <point x="182" y="-46"/>
      <point x="186" y="-18"/>
      <point x="188" y="16" type="curve"/>
    </contour>
  </outline>
</glyph>
<glyph name="l" format="2">
  <advance width="212"/>
  <unicode hex="006C"/>
  <outline>
    <contour>
      <point x="159" y="-8" type="line"/>
      <point x="159" y="721" type="line"/>
      <point x="53" y="721" type="line"/>
      <point x="53" y="-8" type="line"/>
    </contour>
  </outline>
</glyph>
<glyph name="q" format="2">
  <advance width="500"/>
  <unicode hex="0071"/>
  <outline>
    <contour>
      <point x="24" y="259" type="curve" smooth="yes"/>
      <point x="24" y="215"/>
      <point x="29" y="177"/>
      <point x="40" y="143" type="curve" smooth="yes"/>
      <point x="50" y="109"/>
      <point x="64" y="81"/>
      <point x="81" y="59" type="curve" smooth="yes"/>
      <point x="98" y="35"/>
      <point x="120" y="16"/>
      <point x="147" y="4" type="curve" smooth="yes"/>
      <point x="173" y="-8"/>
      <point x="200" y="-15"/>
      <point x="229" y="-15" type="curve" smooth="yes"/>
      <point x="276" y="-15"/>
      <point x="316" y="2"/>
      <point x="348" y="38" type="curve"/>
      <point x="348" y="-166" type="line"/>
      <point x="451" y="-166" type="line"/>
      <point x="451" y="512" type="line"/>
      <point x="348" y="512" type="line"/>
      <point x="348" y="465" type="line"/>
      <point x="316" y="504"/>
      <point x="278" y="524"/>
      <point x="233" y="524" type="curve" smooth="yes"/>
      <point x="199" y="524"/>
      <point x="169" y="516"/>
      <point x="142" y="501" type="curve" smooth="yes"/>
      <point x="114" y="485"/>
      <point x="91" y="464"/>
      <point x="74" y="440" type="curve" smooth="yes"/>
      <point x="58" y="414"/>
      <point x="45" y="386"/>
      <point x="37" y="356" type="curve" smooth="yes"/>
      <point x="28" y="325"/>
      <point x="24" y="293"/>
    </contour>
    <contour>
      <point x="130" y="254" type="curve" smooth="yes"/>
      <point x="130" y="279"/>
      <point x="133" y="303"/>
      <point x="139" y="326" type="curve" smooth="yes"/>
      <point x="145" y="348"/>
      <point x="153" y="368"/>
      <point x="164" y="385" type="curve" smooth="yes"/>
      <point x="174" y="400"/>
      <point x="185" y="412"/>
      <point x="199" y="421" type="curve" smooth="yes"/>
      <point x="212" y="429"/>
      <point x="225" y="434"/>
      <point x="239" y="434" type="curve" smooth="yes"/>
      <point x="252" y="434"/>
      <point x="265" y="429"/>
      <point x="279" y="420" type="curve" smooth="yes"/>
      <point x="292" y="410"/>
      <point x="303" y="398"/>
      <point x="313" y="384" type="curve" smooth="yes"/>
      <point x="323" y="367"/>
      <point x="332" y="348"/>
      <point x="338" y="326" type="curve" smooth="yes"/>
      <point x="344" y="303"/>
      <point x="347" y="279"/>
      <point x="347" y="254" type="curve" smooth="yes"/>
      <point x="347" y="228"/>
      <point x="344" y="205"/>
      <point x="338" y="183" type="curve" smooth="yes"/>
      <point x="332" y="160"/>
      <point x="323" y="140"/>
      <point x="313" y="124" type="curve" smooth="yes"/>
      <point x="303" y="108"/>
      <point x="292" y="95"/>
      <point x="279" y="87" type="curve" smooth="yes"/>
      <point x="265" y="78"/>
      <point x="252" y="74"/>
      <point x="239" y="74" type="curve" smooth="yes"/>
      <point x="225" y="74"/>
      <point x="212" y="78"/>
      <point x="199" y="87" type="curve" smooth="yes"/>
      <point x="185" y="95"/>
      <point x="173" y="107"/>
      <point x="164" y="123" type="curve" smooth="yes"/>
      <point x="153" y="139"/>
      <point x="145" y="159"/>
      <point x="139" y="182" type="curve" smooth="yes"/>
      <point x="133" y="204"/>
      <point x="130" y="228"/>
    </contour>
  </outline>
</glyph>
<glyph name="u" format="2">
  <advance width="500"/>
  <unicode hex="0075"/>
  <outline>
    <contour>
      <point x="49" y="512" type="line"/>
      <point x="49" y="166" type="line" smooth="yes"/>
      <point x="49" y="104"/>
      <point x="65" y="57"/>
      <point x="98" y="25" type="curve" smooth="yes"/>
      <point x="128" y="-5"/>
      <point x="171" y="-20"/>
      <point x="227" y="-20" type="curve" smooth="yes"/>
      <point x="253" y="-20"/>
      <point x="277" y="-13"/>
      <point x="299" y="1" type="curve" smooth="yes"/>
      <point x="320" y="14"/>
      <point x="336" y="29"/>
      <point x="348" y="45" type="curve"/>
      <point x="348" y="-8" type="line"/>
      <point x="451" y="-8" type="line"/>
      <point x="451" y="512" type="line"/>
      <point x="348" y="512" type="line"/>
      <point x="348" y="284" type="line" smooth="yes"/>
      <point x="348" y="270"/>
      <point x="347" y="258"/>
      <point x="347" y="247" type="curve" smooth="yes"/>
      <point x="345" y="235"/>
      <point x="343" y="224"/>
      <point x="341" y="213" type="curve" smooth="yes"/>
      <point x="331" y="166"/>
      <point x="317" y="131"/>
      <point x="297" y="109" type="curve" smooth="yes"/>
      <point x="277" y="85"/>
      <point x="255" y="74"/>
      <point x="232" y="74" type="curve" smooth="yes"/>
      <point x="205" y="74"/>
      <point x="186" y="82"/>
      <point x="176" y="98" type="curve" smooth="yes"/>
      <point x="160" y="120"/>
      <point x="153" y="148"/>
      <point x="153" y="184" type="curve" smooth="yes"/>
      <point x="153" y="512" type="line"/>
    </contour>
  </outline>
</glyph>
<glyph name="z" format="2">
  <advance width="420"/>
  <unicode hex="007A"/>
  <outline>
    <contour>
      <point x="401" y="-8" type="line"/>
      <point x="401" y="81" type="line"/>
      <point x="143" y="81" type="line"/>
      <point x="389" y="427" type="line"/>
      <point x="389" y="512" type="line"/>
      <point x="36" y="512" type="line"/>
      <point x="36" y="423" type="line"/>
      <point x="268" y="423" type="line"/>
      <point x="19" y="71" type="line"/>
      <point x="19" y="-8" type="line"/>
    </contour>
  </outline>
</glyph>
<glyph name="braceleft" format="2">
  <advance width="406"/>
  <unicode hex="007B"/>
  <outline>
    <contour>
      <point x="97" y="299" type="line"/>
      <point x="129" y="288"/>
      <point x="154" y="275"/>
      <point x="170" y="260" type="curve" smooth="yes"/>
      <point x="185" y="244"/>
      <point x="193" y="223"/>
      <point x="193" y="198" type="curve" smooth="yes"/>
      <point x="193" y="182"/>
      <point x="190" y="163"/>
      <point x="185" y="142" type="curve" smooth="yes"/>
      <point x="179" y="120"/>
      <point x="176" y="102"/>
      <point x="174" y="88" type="curve" smooth="yes"/>
      <point x="171" y="68"/>
      <point x="170" y="47"/>
      <point x="170" y="25" type="curve" smooth="yes"/>
      <point x="170" y="3"/>
      <point x="175" y="-19"/>
      <point x="185" y="-41" type="curve" smooth="yes"/>
      <point x="195" y="-62"/>
      <point x="207" y="-80"/>
      <point x="221" y="-95" type="curve" smooth="yes"/>
      <point x="234" y="-109"/>
      <point x="249" y="-120"/>
      <point x="265" y="-128" type="curve" smooth="yes"/>
      <point x="281" y="-136"/>
      <point x="297" y="-142"/>
      <point x="315" y="-147" type="curve" smooth="yes"/>
      <point x="332" y="-151"/>
      <point x="353" y="-153"/>
      <point x="378" y="-151" type="curve"/>
      <point x="378" y="-93" type="line"/>
      <point x="345" y="-83"/>
      <point x="323" y="-71"/>
      <point x="311" y="-56" type="curve" smooth="yes"/>
      <point x="298" y="-40"/>
      <point x="290" y="-23"/>
      <point x="286" y="-7" type="curve" smooth="yes"/>
      <point x="280" y="15"/>
      <point x="279" y="36"/>
      <point x="282" y="57" type="curve" smooth="yes"/>
      <point x="284" y="77"/>
      <point x="286" y="97"/>
      <point x="290" y="118" type="curve" smooth="yes"/>
      <point x="293" y="138"/>
      <point x="294" y="160"/>
      <point x="293" y="183" type="curve" smooth="yes"/>
      <point x="291" y="205"/>
      <point x="286" y="225"/>
      <point x="278" y="242" type="curve" smooth="yes"/>
      <point x="264" y="271"/>
      <point x="249" y="292"/>
      <point x="233" y="306" type="curve" smooth="yes"/>
      <point x="216" y="319"/>
      <point x="205" y="327"/>
      <point x="200" y="330" type="curve"/>
      <point x="205" y="332"/>
      <point x="216" y="341"/>
      <point x="233" y="355" type="curve" smooth="yes"/>
      <point x="249" y="368"/>
      <point x="264" y="389"/>
      <point x="278" y="419" type="curve" smooth="yes"/>
      <point x="286" y="435"/>
      <point x="291" y="455"/>
      <point x="293" y="478" type="curve" smooth="yes"/>
      <point x="294" y="500"/>
      <point x="293" y="522"/>
      <point x="290" y="543" type="curve" smooth="yes"/>
      <point x="286" y="563"/>
      <point x="284" y="584"/>
      <point x="282" y="605" type="curve" smooth="yes"/>
      <point x="279" y="625"/>
      <point x="280" y="646"/>
      <point x="286" y="668" type="curve" smooth="yes"/>
      <point x="290" y="684"/>
      <point x="298" y="701"/>
      <point x="311" y="717" type="curve" smooth="yes"/>
      <point x="323" y="732"/>
      <point x="345" y="744"/>
      <point x="378" y="754" type="curve"/>
      <point x="378" y="812" type="line"/>
      <point x="353" y="814"/>
      <point x="332" y="812"/>
      <point x="315" y="808" type="curve" smooth="yes"/>
      <point x="297" y="803"/>
      <point x="281" y="797"/>
      <point x="265" y="789" type="curve" smooth="yes"/>
      <point x="249" y="781"/>
      <point x="234" y="770"/>
      <point x="221" y="756" type="curve" smooth="yes"/>
      <point x="207" y="741"/>
      <point x="195" y="723"/>
      <point x="185" y="702" type="curve" smooth="yes"/>
      <point x="175" y="680"/>
      <point x="170" y="658"/>
      <point x="170" y="636" type="curve" smooth="yes"/>
      <point x="170" y="614"/>
      <point x="171" y="593"/>
      <point x="174" y="573" type="curve" smooth="yes"/>
      <point x="176" y="559"/>
      <point x="179" y="541"/>
      <point x="185" y="520" type="curve" smooth="yes"/>
      <point x="190" y="498"/>
      <point x="193" y="479"/>
      <point x="193" y="463" type="curve" smooth="yes"/>
      <point x="193" y="437"/>
      <point x="185" y="417"/>
      <point x="170" y="401" type="curve" smooth="yes"/>
      <point x="154" y="385"/>
      <point x="129" y="372"/>
      <point x="97" y="362" type="curve"/>
    </contour>
  </outline>
</glyph>
<glyph name="bar" format="2">
  <advance width="303"/>
  <unicode hex="007C"/>
  <outline>
    <contour>
      <point x="199" y="-134" type="line"/>
      <point x="199" y="793" type="line"/>
      <point x="104" y="793" type="line"/>
      <point x="104" y="-134" type="line"/>
    </contour>
  </outline>
</glyph>
<glyph name="exclamdown" format="2">
  <advance width="838"/>
  <unicode hex="00A1"/>
  <outline>
    <contour>
      <point x="472" y="-81" type="line"/>
      <point x="465" y="500" type="line"/>
      <point x="372" y="500" type="line"/>
      <point x="365" y="-81" type="line"/>
    </contour>
    <contour>
      <point x="479" y="744" type="line"/>
      <point x="359" y="744" type="line"/>
      <point x="359" y="622" type="line"/>
      <point x="479" y="622" type="line"/>
    </contour>
  </outline>
</glyph>
<glyph name="currency" format="2">
  <advance width="678"/>
  <unicode hex="00A4"/>
  <outline>
    <contour>
      <point x="106" y="332" type="curve" smooth="yes"/>
      <point x="106" y="274"/>
      <point x="122" y="225"/>
      <point x="154" y="183" type="curve"/>
      <point x="77" y="101" type="line"/>
      <point x="131" y="50" type="line"/>
      <point x="207" y="131" type="line"/>
      <point x="247" y="101"/>
      <point x="293" y="86"/>
      <point x="343" y="86" type="curve" smooth="yes"/>
      <point x="393" y="86"/>
      <point x="438" y="101"/>
      <point x="479" y="131" type="curve"/>
      <point x="555" y="50" type="line"/>
      <point x="609" y="101" type="line"/>
      <point x="532" y="183" type="line"/>
      <point x="564" y="225"/>
      <point x="580" y="274"/>
      <point x="580" y="332" type="curve" smooth="yes"/>
      <point x="580" y="389"/>
      <point x="564" y="438"/>
      <point x="532" y="480" type="curve"/>
      <point x="609" y="562" type="line"/>
      <point x="556" y="613" type="line"/>
      <point x="480" y="532" type="line"/>
      <point x="439" y="562"/>
      <point x="393" y="578"/>
      <point x="343" y="578" type="curve" smooth="yes"/>
      <point x="292" y="578"/>
      <point x="246" y="562"/>
      <point x="206" y="532" type="curve"/>
      <point x="130" y="613" type="line"/>
      <point x="77" y="562" type="line"/>
      <point x="153" y="480" type="line"/>
      <point x="121" y="438"/>
      <point x="106" y="388"/>
    </contour>
    <contour>
      <point x="182" y="332" type="curve" smooth="yes"/>
      <point x="182" y="383"/>
      <point x="198" y="425"/>
      <point x="231" y="458" type="curve" smooth="yes"/>
      <point x="263" y="490"/>
      <point x="300" y="506"/>
      <point x="343" y="506" type="curve" smooth="yes"/>
      <point x="385" y="506"/>
      <point x="423" y="490"/>
      <point x="456" y="458" type="curve" smooth="yes"/>
      <point x="488" y="425"/>
      <point x="504" y="383"/>
      <point x="504" y="332" type="curve" smooth="yes"/>
      <point x="504" y="280"/>
      <point x="488" y="239"/>
      <point x="456" y="207" type="curve" smooth="yes"/>
      <point x="423" y="174"/>
      <point x="385" y="158"/>
      <point x="343" y="158" type="curve" smooth="yes"/>
      <point x="300" y="158"/>
      <point x="263" y="174"/>
      <point x="231" y="207" type="curve" smooth="yes"/>
      <point x="198" y="239"/>
      <point x="182" y="280"/>
    </contour>
  </outline>
</glyph>
<glyph name="section" format="2">
  <advance width="347"/>
  <unicode hex="00A7"/>
  <outline>
    <contour>
      <point x="312" y="267" type="curve" smooth="yes"/>
      <point x="318" y="293"/>
      <point x="317" y="319"/>
      <point x="307" y="346" type="curve" smooth="yes"/>
      <point x="297" y="372"/>
      <point x="285" y="396"/>
      <point x="273" y="416" type="curve" smooth="yes"/>
      <point x="259" y="435"/>
      <point x="244" y="453"/>
      <point x="228" y="470" type="curve" smooth="yes"/>
      <point x="211" y="486"/>
      <point x="196" y="502"/>
      <point x="182" y="518" type="curve" smooth="yes"/>
      <point x="167" y="534"/>
      <point x="155" y="551"/>
      <point x="147" y="568" type="curve" smooth="yes"/>
      <point x="137" y="584"/>
      <point x="133" y="603"/>
      <point x="133" y="624" type="curve" smooth="yes"/>
      <point x="133" y="645"/>
      <point x="137" y="660"/>
      <point x="145" y="669" type="curve" smooth="yes"/>
      <point x="153" y="677"/>
      <point x="161" y="681"/>
      <point x="170" y="683" type="curve" smooth="yes"/>
      <point x="178" y="684"/>
      <point x="185" y="683"/>
      <point x="191" y="680" type="curve" smooth="yes"/>
      <point x="196" y="676"/>
      <point x="199" y="674"/>
      <point x="199" y="673" type="curve" smooth="yes"/>
      <point x="196" y="662"/>
      <point x="196" y="651"/>
      <point x="199" y="639" type="curve" smooth="yes"/>
      <point x="201" y="626"/>
      <point x="207" y="616"/>
      <point x="215" y="608" type="curve" smooth="yes"/>
      <point x="222" y="598"/>
      <point x="232" y="592"/>
      <point x="244" y="590" type="curve" smooth="yes"/>
      <point x="256" y="587"/>
      <point x="267" y="592"/>
      <point x="279" y="605" type="curve" smooth="yes"/>
      <point x="289" y="615"/>
      <point x="294" y="629"/>
      <point x="293" y="645" type="curve" smooth="yes"/>
      <point x="291" y="661"/>
      <point x="284" y="676"/>
      <point x="274" y="691" type="curve" smooth="yes"/>
      <point x="263" y="705"/>
      <point x="249" y="717"/>
      <point x="232" y="728" type="curve" smooth="yes"/>
      <point x="214" y="738"/>
      <point x="193" y="743"/>
      <point x="170" y="743" type="curve" smooth="yes"/>
      <point x="136" y="742"/>
      <point x="108" y="729"/>
      <point x="86" y="705" type="curve" smooth="yes"/>
      <point x="63" y="680"/>
      <point x="52" y="644"/>
      <point x="54" y="598" type="curve" smooth="yes"/>
      <point x="54" y="578"/>
      <point x="56" y="561"/>
      <point x="61" y="546" type="curve" smooth="yes"/>
      <point x="65" y="530"/>
      <point x="70" y="516"/>
      <point x="76" y="505" type="curve" smooth="yes"/>
      <point x="82" y="491"/>
      <point x="87" y="483"/>
      <point x="90" y="480" type="curve" smooth="yes"/>
      <point x="92" y="476"/>
      <point x="94" y="475"/>
      <point x="94" y="475" type="curve"/>
      <point x="86" y="472"/>
      <point x="79" y="468"/>
      <point x="72" y="462" type="curve" smooth="yes"/>
      <point x="64" y="456"/>
      <point x="55" y="444"/>
      <point x="45" y="428" type="curve" smooth="yes"/>
      <point x="37" y="409"/>
      <point x="35" y="391"/>
      <point x="37" y="374" type="curve" smooth="yes"/>
      <point x="38" y="356"/>
      <point x="42" y="338"/>
      <point x="49" y="321" type="curve" smooth="yes"/>
      <point x="57" y="303"/>
      <point x="67" y="287"/>
      <point x="78" y="273" type="curve" smooth="yes"/>
      <point x="88" y="257"/>
      <point x="100" y="243"/>
      <point x="112" y="229" type="curve" smooth="yes"/>
      <point x="124" y="213"/>
      <point x="136" y="198"/>
      <point x="150" y="184" type="curve" smooth="yes"/>
      <point x="162" y="168"/>
      <point x="174" y="153"/>
      <point x="184" y="138" type="curve" smooth="yes"/>
      <point x="192" y="124"/>
      <point x="198" y="109"/>
      <point x="203" y="94" type="curve" smooth="yes"/>
      <point x="207" y="78"/>
      <point x="208" y="62"/>
      <point x="205" y="44" type="curve" smooth="yes"/>
      <point x="202" y="29"/>
      <point x="197" y="19"/>
      <point x="190" y="15" type="curve" smooth="yes"/>
      <point x="182" y="9"/>
      <point x="174" y="6"/>
      <point x="166" y="6" type="curve" smooth="yes"/>
      <point x="160" y="5"/>
      <point x="155" y="6"/>
      <point x="152" y="9" type="curve" smooth="yes"/>
      <point x="148" y="11"/>
      <point x="146" y="13"/>
      <point x="146" y="15" type="curve" smooth="yes"/>
      <point x="147" y="19"/>
      <point x="147" y="27"/>
      <point x="146" y="37" type="curve" smooth="yes"/>
      <point x="144" y="46"/>
      <point x="141" y="55"/>
      <point x="136" y="63" type="curve" smooth="yes"/>
      <point x="132" y="71"/>
      <point x="125" y="79"/>
      <point x="117" y="85" type="curve" smooth="yes"/>
      <point x="107" y="91"/>
      <point x="96" y="92"/>
      <point x="84" y="89" type="curve" smooth="yes"/>
      <point x="70" y="85"/>
      <point x="61" y="77"/>
      <point x="58" y="65" type="curve" smooth="yes"/>
      <point x="54" y="51"/>
      <point x="54" y="38"/>
      <point x="57" y="25" type="curve" smooth="yes"/>
      <point x="60" y="11"/>
      <point x="67" y="-3"/>
      <point x="78" y="-17" type="curve" smooth="yes"/>
      <point x="88" y="-30"/>
      <point x="103" y="-40"/>
      <point x="121" y="-48" type="curve" smooth="yes"/>
      <point x="137" y="-54"/>
      <point x="154" y="-57"/>
      <point x="172" y="-57" type="curve" smooth="yes"/>
      <point x="190" y="-56"/>
      <point x="207" y="-51"/>
      <point x="223" y="-43" type="curve" smooth="yes"/>
      <point x="237" y="-35"/>
      <point x="251" y="-23"/>
      <point x="263" y="-8" type="curve" smooth="yes"/>
      <point x="275" y="7"/>
      <point x="283" y="26"/>
      <point x="288" y="48" type="curve" smooth="yes"/>
      <point x="293" y="72"/>
      <point x="295" y="94"/>
      <point x="293" y="114" type="curve" smooth="yes"/>
      <point x="291" y="134"/>
      <point x="287" y="151"/>
      <point x="282" y="167" type="curve" smooth="yes"/>
      <point x="276" y="181"/>
      <point x="272" y="192"/>
      <point x="269" y="199" type="curve" smooth="yes"/>
      <point x="265" y="205"/>
      <point x="263" y="208"/>
      <point x="263" y="208" type="curve" smooth="yes"/>
      <point x="261" y="207"/>
      <point x="267" y="211"/>
      <point x="282" y="221" type="curve" smooth="yes"/>
      <point x="296" y="230"/>
      <point x="306" y="245"/>
    </contour>
    <contour>
      <point x="213" y="350" type="curve" smooth="yes"/>
      <point x="219" y="340"/>
      <point x="225" y="331"/>
      <point x="230" y="321" type="curve" smooth="yes"/>
      <point x="234" y="310"/>
      <point x="236" y="300"/>
      <point x="237" y="291" type="curve" smooth="yes"/>
      <point x="237" y="282"/>
      <point x="235" y="275"/>
      <point x="232" y="271" type="curve" smooth="yes"/>
      <point x="228" y="266"/>
      <point x="222" y="264"/>
      <point x="214" y="264" type="curve" smooth="yes"/>
      <point x="208" y="264"/>
      <point x="198" y="269"/>
      <point x="185" y="279" type="curve" smooth="yes"/>
      <point x="171" y="289"/>
      <point x="155" y="305"/>
      <point x="139" y="329" type="curve" smooth="yes"/>
      <point x="131" y="339"/>
      <point x="125" y="350"/>
      <point x="121" y="362" type="curve" smooth="yes"/>
      <point x="116" y="374"/>
      <point x="114" y="384"/>
      <point x="114" y="392" type="curve" smooth="yes"/>
      <point x="114" y="401"/>
      <point x="115" y="408"/>
      <point x="119" y="412" type="curve" smooth="yes"/>
      <point x="122" y="416"/>
      <point x="128" y="417"/>
      <point x="137" y="416" type="curve" smooth="yes"/>
      <point x="145" y="414"/>
      <point x="156" y="407"/>
      <point x="170" y="397" type="curve" smooth="yes"/>
      <point x="182" y="386"/>
      <point x="197" y="370"/>
    </contour>
  </outline>
</glyph>
<glyph name="dieresis" format="2">
  <advance width="518"/>
  <unicode hex="00A8"/>
  <outline>
    <contour>
      <point x="189" y="791" type="line"/>
      <point x="71" y="791" type="line"/>
      <point x="71" y="669" type="line"/>
      <point x="189" y="669" type="line"/>
    </contour>
    <contour>
      <point x="448" y="791" type="line"/>
      <point x="330" y="791" type="line"/>
      <point x="330" y="669" type="line"/>
      <point x="448" y="669" type="line"/>
    </contour>
  </outline>
</glyph>
<glyph name="uni00AD" format="2">
  <advance width="367"/>
  <unicode hex="00AD"/>
  <outline>
    <contour>
      <point x="336" y="390" type="line"/>
      <point x="30" y="390" type="line"/>
      <point x="30" y="294" type="line"/>
      <point x="336" y="294" type="line"/>
    </contour>
  </outline>
</glyph>
<glyph name="registered" format="2">
  <advance width="838"/>
  <unicode hex="00AE"/>
  <outline>
    <contour>
      <point x="696" y="249" type="line"/>
      <point x="642" y="249" type="line" smooth="yes"/>
      <point x="630" y="249"/>
      <point x="622" y="247"/>
      <point x="618" y="243" type="curve" smooth="yes"/>
      <point x="613" y="238"/>
      <point x="609" y="233"/>
      <point x="606" y="227" type="curve" smooth="yes"/>
      <point x="604" y="223"/>
      <point x="603" y="218"/>
      <point x="602" y="213" type="curve" smooth="yes"/>
      <point x="600" y="207"/>
      <point x="596" y="202"/>
      <point x="591" y="197" type="curve" smooth="yes"/>
      <point x="586" y="192"/>
      <point x="581" y="188"/>
      <point x="575" y="185" type="curve" smooth="yes"/>
      <point x="568" y="181"/>
      <point x="563" y="180"/>
      <point x="559" y="180" type="curve" smooth="yes"/>
      <point x="311" y="180" type="line" smooth="yes"/>
      <point x="307" y="178"/>
      <point x="319" y="184"/>
      <point x="346" y="200" type="curve" smooth="yes"/>
      <point x="372" y="214"/>
      <point x="412" y="231"/>
      <point x="468" y="251" type="curve" smooth="yes"/>
      <point x="486" y="257"/>
      <point x="506" y="264"/>
      <point x="527" y="273" type="curve" smooth="yes"/>
      <point x="547" y="281"/>
      <point x="567" y="292"/>
      <point x="585" y="304" type="curve" smooth="yes"/>
      <point x="605" y="316"/>
      <point x="622" y="330"/>
      <point x="638" y="346" type="curve" smooth="yes"/>
      <point x="652" y="362"/>
      <point x="664" y="381"/>
      <point x="674" y="403" type="curve" smooth="yes"/>
      <point x="684" y="431"/>
      <point x="687" y="458"/>
      <point x="685" y="486" type="curve" smooth="yes"/>
      <point x="681" y="512"/>
      <point x="672" y="536"/>
      <point x="658" y="558" type="curve" smooth="yes"/>
      <point x="644" y="579"/>
      <point x="625" y="597"/>
      <point x="603" y="613" type="curve" smooth="yes"/>
      <point x="580" y="628"/>
      <point x="555" y="639"/>
      <point x="529" y="646" type="curve" smooth="yes"/>
      <point x="514" y="648"/>
      <point x="495" y="651"/>
      <point x="473" y="654" type="curve" smooth="yes"/>
      <point x="450" y="656"/>
      <point x="425" y="657"/>
      <point x="399" y="657" type="curve" smooth="yes"/>
      <point x="371" y="655"/>
      <point x="343" y="651"/>
      <point x="315" y="644" type="curve" smooth="yes"/>
      <point x="286" y="636"/>
      <point x="259" y="623"/>
      <point x="234" y="605" type="curve" smooth="yes"/>
      <point x="222" y="595"/>
      <point x="210" y="583"/>
      <point x="199" y="571" type="curve" smooth="yes"/>
      <point x="187" y="557"/>
      <point x="178" y="543"/>
      <point x="171" y="527" type="curve" smooth="yes"/>
      <point x="165" y="511"/>
      <point x="163" y="493"/>
      <point x="164" y="475" type="curve" smooth="yes"/>
      <point x="164" y="456"/>
      <point x="169" y="438"/>
      <point x="181" y="420" type="curve" smooth="yes"/>
      <point x="189" y="405"/>
      <point x="200" y="394"/>
      <point x="216" y="388" type="curve" smooth="yes"/>
      <point x="230" y="381"/>
      <point x="246" y="378"/>
      <point x="262" y="380" type="curve" smooth="yes"/>
      <point x="277" y="381"/>
      <point x="292" y="387"/>
      <point x="306" y="399" type="curve" smooth="yes"/>
      <point x="320" y="409"/>
      <point x="330" y="425"/>
      <point x="337" y="445" type="curve" smooth="yes"/>
      <point x="342" y="465"/>
      <point x="341" y="485"/>
      <point x="335" y="503" type="curve" smooth="yes"/>
      <point x="328" y="520"/>
      <point x="324" y="530"/>
      <point x="322" y="534" type="curve" smooth="yes"/>
      <point x="324" y="537"/>
      <point x="335" y="542"/>
      <point x="353" y="548" type="curve" smooth="yes"/>
      <point x="371" y="554"/>
      <point x="398" y="556"/>
      <point x="436" y="556" type="curve" smooth="yes"/>
      <point x="452" y="554"/>
      <point x="467" y="548"/>
      <point x="479" y="540" type="curve" smooth="yes"/>
      <point x="490" y="531"/>
      <point x="498" y="520"/>
      <point x="502" y="506" type="curve" smooth="yes"/>
      <point x="508" y="492"/>
      <point x="509" y="476"/>
      <point x="506" y="460" type="curve" smooth="yes"/>
      <point x="502" y="442"/>
      <point x="495" y="425"/>
      <point x="483" y="408" type="curve" smooth="yes"/>
      <point x="475" y="396"/>
      <point x="464" y="386"/>
      <point x="452" y="378" type="curve" smooth="yes"/>
      <point x="438" y="369"/>
      <point x="423" y="360"/>
      <point x="406" y="351" type="curve" smooth="yes"/>
      <point x="388" y="341"/>
      <point x="370" y="331"/>
      <point x="350" y="321" type="curve" smooth="yes"/>
      <point x="330" y="310"/>
      <point x="309" y="297"/>
      <point x="287" y="283" type="curve" smooth="yes"/>
      <point x="245" y="253"/>
      <point x="212" y="223"/>
      <point x="187" y="193" type="curve" smooth="yes"/>
      <point x="161" y="161"/>
      <point x="148" y="129"/>
      <point x="148" y="97" type="curve" smooth="yes"/>
      <point x="148" y="17" type="line"/>
      <point x="677" y="17" type="line"/>
    </contour>
    <contour>
      <point x="154" y="-66" type="line" smooth="yes"/>
      <point x="142" y="-66"/>
      <point x="132" y="-64"/>
      <point x="122" y="-61" type="curve" smooth="yes"/>
      <point x="111" y="-57"/>
      <point x="103" y="-51"/>
      <point x="97" y="-45" type="curve" smooth="yes"/>
      <point x="87" y="-36"/>
      <point x="81" y="-24"/>
      <point x="78" y="-10" type="curve" smooth="yes"/>
      <point x="74" y="5"/>
      <point x="73" y="20"/>
      <point x="73" y="36" type="curve" smooth="yes"/>
      <point x="73" y="629" type="line" smooth="yes"/>
      <point x="73" y="641"/>
      <point x="74" y="655"/>
      <point x="78" y="670" type="curve" smooth="yes"/>
      <point x="80" y="684"/>
      <point x="84" y="694"/>
      <point x="90" y="702" type="curve" smooth="yes"/>
      <point x="98" y="712"/>
      <point x="108" y="719"/>
      <point x="120" y="724" type="curve" smooth="yes"/>
      <point x="131" y="728"/>
      <point x="143" y="730"/>
      <point x="157" y="730" type="curve" smooth="yes"/>
      <point x="678" y="730" type="line" smooth="yes"/>
      <point x="692" y="730"/>
      <point x="704" y="728"/>
      <point x="716" y="724" type="curve" smooth="yes"/>
      <point x="727" y="719"/>
      <point x="737" y="712"/>
      <point x="746" y="702" type="curve" smooth="yes"/>
      <point x="750" y="695"/>
      <point x="755" y="684"/>
      <point x="759" y="670" type="curve" smooth="yes"/>
      <point x="762" y="655"/>
      <point x="764" y="641"/>
      <point x="764" y="629" type="curve" smooth="yes"/>
      <point x="764" y="37" type="line" smooth="yes"/>
      <point x="764" y="21"/>
      <point x="762" y="5"/>
      <point x="758" y="-10" type="curve" smooth="yes"/>
      <point x="754" y="-24"/>
      <point x="747" y="-36"/>
      <point x="739" y="-45" type="curve" smooth="yes"/>
      <point x="733" y="-51"/>
      <point x="725" y="-57"/>
      <point x="715" y="-61" type="curve" smooth="yes"/>
      <point x="704" y="-64"/>
      <point x="692" y="-66"/>
      <point x="680" y="-66" type="curve" smooth="yes"/>
    </contour>
    <contour>
      <point x="166" y="785" type="line" smooth="yes"/>
      <point x="160" y="785"/>
      <point x="153" y="784"/>
      <point x="143" y="784" type="curve" smooth="yes"/>
      <point x="133" y="783"/>
      <point x="122" y="781"/>
      <point x="110" y="779" type="curve" smooth="yes"/>
      <point x="98" y="775"/>
      <point x="86" y="771"/>
      <point x="75" y="765" type="curve" smooth="yes"/>
      <point x="63" y="758"/>
      <point x="53" y="749"/>
      <point x="45" y="739" type="curve" smooth="yes"/>
      <point x="31" y="721"/>
      <point x="23" y="702"/>
      <point x="20" y="683" type="curve" smooth="yes"/>
      <point x="16" y="663"/>
      <point x="15" y="646"/>
      <point x="15" y="634" type="curve" smooth="yes"/>
      <point x="15" y="46" type="line" smooth="yes"/>
      <point x="15" y="40"/>
      <point x="15" y="31"/>
      <point x="16" y="20" type="curve" smooth="yes"/>
      <point x="16" y="8"/>
      <point x="18" y="-3"/>
      <point x="21" y="-15" type="curve" smooth="yes"/>
      <point x="23" y="-28"/>
      <point x="27" y="-41"/>
      <point x="33" y="-54" type="curve" smooth="yes"/>
      <point x="38" y="-66"/>
      <point x="46" y="-76"/>
      <point x="56" y="-84" type="curve" smooth="yes"/>
      <point x="70" y="-98"/>
      <point x="87" y="-107"/>
      <point x="106" y="-113" type="curve" smooth="yes"/>
      <point x="124" y="-118"/>
      <point x="140" y="-121"/>
      <point x="152" y="-121" type="curve" smooth="yes"/>
      <point x="682" y="-121" type="line" smooth="yes"/>
      <point x="694" y="-121"/>
      <point x="710" y="-118"/>
      <point x="729" y="-113" type="curve" smooth="yes"/>
      <point x="747" y="-107"/>
      <point x="763" y="-98"/>
      <point x="779" y="-84" type="curve" smooth="yes"/>
      <point x="789" y="-76"/>
      <point x="797" y="-66"/>
      <point x="803" y="-54" type="curve" smooth="yes"/>
      <point x="808" y="-41"/>
      <point x="812" y="-28"/>
      <point x="814" y="-15" type="curve" smooth="yes"/>
      <point x="816" y="-3"/>
      <point x="818" y="8"/>
      <point x="820" y="20" type="curve" smooth="yes"/>
      <point x="820" y="31"/>
      <point x="821" y="40"/>
      <point x="821" y="46" type="curve" smooth="yes"/>
      <point x="821" y="634" type="line" smooth="yes"/>
      <point x="821" y="646"/>
      <point x="819" y="663"/>
      <point x="816" y="683" type="curve" smooth="yes"/>
      <point x="812" y="702"/>
      <point x="803" y="721"/>
      <point x="791" y="739" type="curve" smooth="yes"/>
      <point x="783" y="749"/>
      <point x="773" y="758"/>
      <point x="762" y="765" type="curve" smooth="yes"/>
      <point x="750" y="771"/>
      <point x="737" y="775"/>
      <point x="725" y="779" type="curve" smooth="yes"/>
      <point x="713" y="781"/>
      <point x="703" y="783"/>
      <point x="693" y="784" type="curve" smooth="yes"/>
      <point x="683" y="784"/>
      <point x="675" y="785"/>
      <point x="669" y="785" type="curve" smooth="yes"/>
    </contour>
  </outline>
</glyph>
<glyph name="plusminus" format="2">
  <advance width="590"/>
  <unicode hex="00B1"/>
  <outline>
    <contour>
      <point x="556" y="371" type="line"/>
      <point x="556" y="458" type="line"/>
      <point x="343" y="458" type="line"/>
      <point x="343" y="647" type="line"/>
      <point x="249" y="647" type="line"/>
      <point x="249" y="458" type="line"/>
      <point x="36" y="458" type="line"/>
      <point x="36" y="371" type="line"/>
      <point x="249" y="371" type="line"/>
      <point x="249" y="178" type="line"/>
      <point x="343" y="178" type="line"/>
      <point x="343" y="371" type="line"/>
    </contour>
    <contour>
      <point x="556" y="43" type="line"/>
      <point x="556" y="129" type="line"/>
      <point x="36" y="129" type="line"/>
      <point x="36" y="43" type="line"/>
    </contour>
  </outline>
</glyph>
<glyph name="paragraph" format="2">
  <advance width="838"/>
  <unicode hex="00B6"/>
  <outline>
    <contour>
      <point x="357" y="722" type="line" smooth="yes"/>
      <point x="309" y="722"/>
      <point x="267" y="702"/>
      <point x="232" y="664" type="curve" smooth="yes"/>
      <point x="196" y="625"/>
      <point x="179" y="578"/>
      <point x="179" y="523" type="curve" smooth="yes"/>
      <point x="179" y="466"/>
      <point x="195" y="418"/>
      <point x="229" y="379" type="curve" smooth="yes"/>
      <point x="261" y="339"/>
      <point x="304" y="320"/>
      <point x="356" y="320" type="curve"/>
      <point x="356" y="-157" type="line"/>
      <point x="422" y="-157" type="line"/>
      <point x="422" y="659" type="line"/>
      <point x="483" y="659" type="line"/>
      <point x="483" y="-157" type="line"/>
      <point x="550" y="-157" type="line"/>
      <point x="550" y="722" type="line"/>
    </contour>
  </outline>
</glyph>
<glyph name="periodcentered" format="2">
  <advance width="259"/>
  <unicode hex="00B7"/>
  <outline>
    <contour>
      <point x="189" y="401" type="line"/>
      <point x="71" y="401" type="line"/>
      <point x="71" y="279" type="line"/>
      <point x="189" y="279" type="line"/>
    </contour>
  </outline>
</glyph>
<glyph name="cedilla" format="2">
  <advance width="280"/>
  <unicode hex="00B8"/>
  <outline>
    <contour>
      <point x="257" y="43" type="line"/>
      <point x="160" y="43" type="line"/>
      <point x="160" y="-73" type="line" smooth="yes"/>
      <point x="158" y="-85"/>
      <point x="153" y="-94"/>
      <point x="145" y="-99" type="curve" smooth="yes"/>
      <point x="137" y="-103"/>
      <point x="125" y="-105"/>
      <point x="111" y="-105" type="curve" smooth="yes"/>
      <point x="100" y="-105"/>
      <point x="90" y="-103"/>
      <point x="80" y="-100" type="curve" smooth="yes"/>
      <point x="69" y="-96"/>
      <point x="55" y="-89"/>
      <point x="39" y="-79" type="curve"/>
      <point x="14" y="-126" type="line"/>
      <point x="34" y="-139"/>
      <point x="54" y="-149"/>
      <point x="74" y="-156" type="curve" smooth="yes"/>
      <point x="93" y="-162"/>
      <point x="114" y="-165"/>
      <point x="137" y="-165" type="curve" smooth="yes"/>
      <point x="170" y="-165"/>
      <point x="198" y="-156"/>
      <point x="222" y="-139" type="curve" smooth="yes"/>
      <point x="245" y="-121"/>
      <point x="257" y="-98"/>
      <point x="257" y="-69" type="curve" smooth="yes"/>
    </contour>
  </outline>
</glyph>
<glyph name="onehalf" format="2">
  <advance width="838"/>
  <unicode hex="00BD"/>
  <outline>
    <contour>
      <point x="133" y="-81" type="line"/>
      <point x="746" y="713" type="line"/>
      <point x="677" y="767" type="line"/>
      <point x="64" y="-27" type="line"/>
    </contour>
    <contour>
      <point x="181" y="637" type="line"/>
      <point x="181" y="310" type="line"/>
      <point x="272" y="310" type="line"/>
      <point x="272" y="751" type="line"/>
      <point x="204" y="751" type="line"/>
      <point x="121" y="694" type="line"/>
      <point x="121" y="594" type="line"/>
    </contour>
    <contour>
      <point x="476" y="-5" type="curve"/>
      <point x="476" y="-78" type="line"/>
      <point x="727" y="-78" type="line"/>
      <point x="727" y="7" type="line"/>
      <point x="605" y="7" type="line"/>
      <point x="610" y="13"/>
      <point x="624" y="31"/>
      <point x="647" y="61" type="curve" smooth="yes"/>
      <point x="671" y="92"/>
      <point x="692" y="128"/>
      <point x="709" y="168" type="curve" smooth="yes"/>
      <point x="712" y="178"/>
      <point x="715" y="190"/>
      <point x="717" y="203" type="curve" smooth="yes"/>
      <point x="719" y="215"/>
      <point x="720" y="225"/>
      <point x="720" y="235" type="curve" smooth="yes"/>
      <point x="720" y="273"/>
      <point x="707" y="304"/>
      <point x="682" y="328" type="curve" smooth="yes"/>
      <point x="656" y="352"/>
      <point x="627" y="364"/>
      <point x="595" y="364" type="curve" smooth="yes"/>
      <point x="571" y="364"/>
      <point x="551" y="359"/>
      <point x="535" y="350" type="curve" smooth="yes"/>
      <point x="519" y="340"/>
      <point x="506" y="328"/>
      <point x="496" y="315" type="curve" smooth="yes"/>
      <point x="488" y="301"/>
      <point x="482" y="287"/>
      <point x="479" y="273" type="curve" smooth="yes"/>
      <point x="475" y="258"/>
      <point x="473" y="240"/>
      <point x="473" y="220" type="curve"/>
      <point x="568" y="220" type="line"/>
      <point x="566" y="246"/>
      <point x="568" y="263"/>
      <point x="574" y="271" type="curve" smooth="yes"/>
      <point x="579" y="279"/>
      <point x="586" y="283"/>
      <point x="595" y="283" type="curve" smooth="yes"/>
      <point x="606" y="283"/>
      <point x="614" y="278"/>
      <point x="620" y="270" type="curve" smooth="yes"/>
      <point x="624" y="260"/>
      <point x="627" y="250"/>
      <point x="627" y="239" type="curve" smooth="yes"/>
      <point x="627" y="232"/>
      <point x="626" y="223"/>
      <point x="625" y="213" type="curve" smooth="yes"/>
      <point x="623" y="202"/>
      <point x="621" y="195"/>
      <point x="620" y="191" type="curve" smooth="yes"/>
      <point x="609" y="160"/>
      <point x="591" y="128"/>
      <point x="565" y="95" type="curve" smooth="yes"/>
      <point x="529" y="49"/>
      <point x="500" y="16"/>
    </contour>
  </outline>
</glyph>
<glyph name="Eth" format="2">
  <advance width="627"/>
  <unicode hex="00D0"/>
  <outline>
    <contour>
      <point x="111" y="323" type="line"/>
      <point x="111" y="-8" type="line"/>
      <point x="268" y="-8" type="line" smooth="yes"/>
      <point x="310" y="-8"/>
      <point x="351" y="-3"/>
      <point x="391" y="6" type="curve" smooth="yes"/>
      <point x="420" y="14"/>
      <point x="447" y="28"/>
      <point x="472" y="48" type="curve" smooth="yes"/>
      <point x="496" y="67"/>
      <point x="518" y="91"/>
      <point x="537" y="121" type="curve" smooth="yes"/>
      <point x="556" y="150"/>
      <point x="571" y="184"/>
      <point x="583" y="223" type="curve" smooth="yes"/>
      <point x="593" y="261"/>
      <point x="599" y="306"/>
      <point x="599" y="359" type="curve" smooth="yes"/>
      <point x="599" y="449"/>
      <point x="583" y="521"/>
      <point x="553" y="575" type="curve" smooth="yes"/>
      <point x="521" y="628"/>
      <point x="481" y="667"/>
      <point x="432" y="691" type="curve" smooth="yes"/>
      <point x="391" y="711"/>
      <point x="340" y="721"/>
      <point x="278" y="721" type="curve" smooth="yes"/>
      <point x="111" y="721" type="line"/>
      <point x="111" y="407" type="line"/>
      <point x="9" y="407" type="line"/>
      <point x="9" y="323" type="line"/>
    </contour>
    <contour>
      <point x="211" y="323" type="line"/>
      <point x="405" y="323" type="line"/>
      <point x="405" y="407" type="line"/>
      <point x="211" y="407" type="line"/>
      <point x="211" y="626" type="line"/>
      <point x="263" y="626" type="line" smooth="yes"/>
      <point x="301" y="625"/>
      <point x="332" y="622"/>
      <point x="358" y="617" type="curve" smooth="yes"/>
      <point x="375" y="613"/>
      <point x="392" y="606"/>
      <point x="409" y="595" type="curve" smooth="yes"/>
      <point x="425" y="583"/>
      <point x="439" y="566"/>
      <point x="452" y="546" type="curve" smooth="yes"/>
      <point x="465" y="526"/>
      <point x="476" y="501"/>
      <point x="485" y="471" type="curve" smooth="yes"/>
      <point x="493" y="440"/>
      <point x="498" y="402"/>
      <point x="499" y="358" type="curve" smooth="yes"/>
      <point x="499" y="314"/>
      <point x="494" y="278"/>
      <point x="486" y="248" type="curve" smooth="yes"/>
      <point x="476" y="218"/>
      <point x="465" y="192"/>
      <point x="452" y="171" type="curve" smooth="yes"/>
      <point x="440" y="152"/>
      <point x="425" y="136"/>
      <point x="409" y="122" type="curve" smooth="yes"/>
      <point x="392" y="107"/>
      <point x="377" y="99"/>
      <point x="364" y="97" type="curve" smooth="yes"/>
      <point x="333" y="89"/>
      <point x="302" y="86"/>
      <point x="272" y="87" type="curve" smooth="yes"/>
      <point x="211" y="87" type="line"/>
    </contour>
  </outline>
</glyph>
<glyph name="germandbls" format="2">
  <advance width="537"/>
  <unicode hex="00DF"/>
  <outline>
    <contour>
      <point x="261" y="331" type="line" smooth="yes"/>
      <point x="282" y="331"/>
      <point x="301" y="328"/>
      <point x="317" y="324" type="curve" smooth="yes"/>
      <point x="333" y="319"/>
      <point x="347" y="312"/>
      <point x="360" y="302" type="curve" smooth="yes"/>
      <point x="372" y="292"/>
      <point x="383" y="279"/>
      <point x="391" y="264" type="curve" smooth="yes"/>
      <point x="399" y="248"/>
      <point x="403" y="229"/>
      <point x="404" y="207" type="curve" smooth="yes"/>
      <point x="401" y="161"/>
      <point x="387" y="129"/>
      <point x="362" y="112" type="curve" smooth="yes"/>
      <point x="336" y="94"/>
      <point x="298" y="85"/>
      <point x="249" y="85" type="curve" smooth="yes"/>
      <point x="209" y="85" type="line"/>
      <point x="209" y="-8" type="line"/>
      <point x="267" y="-8" type="line" smooth="yes"/>
      <point x="298" y="-8"/>
      <point x="328" y="-4"/>
      <point x="356" y="3" type="curve" smooth="yes"/>
      <point x="384" y="10"/>
      <point x="409" y="22"/>
      <point x="431" y="39" type="curve" smooth="yes"/>
      <point x="453" y="55"/>
      <point x="471" y="77"/>
      <point x="485" y="105" type="curve" smooth="yes"/>
      <point x="499" y="132"/>
      <point x="506" y="165"/>
      <point x="506" y="205" type="curve" smooth="yes"/>
      <point x="506" y="241"/>
      <point x="500" y="270"/>
      <point x="489" y="294" type="curve" smooth="yes"/>
      <point x="477" y="317"/>
      <point x="463" y="336"/>
      <point x="447" y="350" type="curve" smooth="yes"/>
      <point x="431" y="362"/>
      <point x="418" y="370"/>
      <point x="408" y="374" type="curve" smooth="yes"/>
      <point x="398" y="377"/>
      <point x="390" y="380"/>
      <point x="384" y="382" type="curve"/>
      <point x="402" y="390"/>
      <point x="423" y="407"/>
      <point x="446" y="435" type="curve" smooth="yes"/>
      <point x="468" y="462"/>
      <point x="480" y="499"/>
      <point x="480" y="545" type="curve" smooth="yes"/>
      <point x="478" y="611"/>
      <point x="457" y="659"/>
      <point x="418" y="689" type="curve" smooth="yes"/>
      <point x="378" y="719"/>
      <point x="330" y="734"/>
      <point x="273" y="734" type="curve" smooth="yes"/>
      <point x="210" y="734"/>
      <point x="160" y="712"/>
      <point x="124" y="668" type="curve" smooth="yes"/>
      <point x="86" y="624"/>
      <point x="68" y="565"/>
      <point x="68" y="492" type="curve" smooth="yes"/>
      <point x="68" y="-8" type="line"/>
      <point x="168" y="-8" type="line"/>
      <point x="168" y="486" type="line" smooth="yes"/>
      <point x="168" y="536"/>
      <point x="176" y="575"/>
      <point x="193" y="602" type="curve" smooth="yes"/>
      <point x="209" y="628"/>
      <point x="236" y="641"/>
      <point x="272" y="641" type="curve" smooth="yes"/>
      <point x="304" y="641"/>
      <point x="331" y="632"/>
      <point x="351" y="616" type="curve" smooth="yes"/>
      <point x="370" y="598"/>
      <point x="380" y="573"/>
      <point x="380" y="540" type="curve" smooth="yes"/>
      <point x="380" y="516"/>
      <point x="376" y="497"/>
      <point x="369" y="482" type="curve" smooth="yes"/>
      <point x="361" y="466"/>
      <point x="351" y="454"/>
      <point x="339" y="447" type="curve" smooth="yes"/>
      <point x="327" y="437"/>
      <point x="312" y="431"/>
      <point x="295" y="428" type="curve" smooth="yes"/>
      <point x="277" y="424"/>
      <point x="254" y="423"/>
      <point x="228" y="423" type="curve" smooth="yes"/>
      <point x="214" y="423" type="line"/>
      <point x="214" y="331" type="line"/>
    </contour>
  </outline>
</glyph>
<glyph name="oslash" format="2">
  <advance width="533"/>
  <unicode hex="00F8"/>
  <outline>
    <contour>
      <point x="384" y="252" type="curve" smooth="yes"/>
      <point x="384" y="226"/>
      <point x="381" y="202"/>
      <point x="375" y="178" type="curve" smooth="yes"/>
      <point x="369" y="154"/>
      <point x="360" y="133"/>
      <point x="349" y="117" type="curve" smooth="yes"/>
      <point x="338" y="101"/>
      <point x="325" y="89"/>
      <point x="310" y="81" type="curve" smooth="yes"/>
      <point x="294" y="72"/>
      <point x="278" y="68"/>
      <point x="262" y="68" type="curve" smooth="yes"/>
      <point x="247" y="68"/>
      <point x="232" y="71"/>
      <point x="218" y="79" type="curve"/>
      <point x="377" y="317" type="line"/>
      <point x="381" y="295"/>
      <point x="384" y="274"/>
    </contour>
    <contour>
      <point x="337" y="403" type="curve"/>
      <point x="162" y="140" type="line"/>
      <point x="156" y="151"/>
      <point x="152" y="164"/>
      <point x="149" y="178" type="curve" smooth="yes"/>
      <point x="143" y="202"/>
      <point x="140" y="226"/>
      <point x="140" y="252" type="curve" smooth="yes"/>
      <point x="140" y="277"/>
      <point x="143" y="302"/>
      <point x="149" y="327" type="curve" smooth="yes"/>
      <point x="155" y="351"/>
      <point x="163" y="371"/>
      <point x="175" y="388" type="curve" smooth="yes"/>
      <point x="185" y="404"/>
      <point x="199" y="416"/>
      <point x="215" y="425" type="curve" smooth="yes"/>
      <point x="230" y="433"/>
      <point x="246" y="437"/>
      <point x="262" y="437" type="curve" smooth="yes"/>
      <point x="278" y="437"/>
      <point x="294" y="433"/>
      <point x="310" y="425" type="curve" smooth="yes"/>
      <point x="320" y="419"/>
      <point x="329" y="411"/>
    </contour>
    <contour>
      <point x="487" y="252" type="curve" smooth="yes"/>
      <point x="487" y="288"/>
      <point x="481" y="324"/>
      <point x="471" y="358" type="curve" smooth="yes"/>
      <point x="464" y="380"/>
      <point x="455" y="400"/>
      <point x="444" y="418" type="curve"/>
      <point x="489" y="485" type="line"/>
      <point x="424" y="532" type="line"/>
      <point x="389" y="480" type="line"/>
      <point x="377" y="488"/>
      <point x="365" y="496"/>
      <point x="352" y="503" type="curve" smooth="yes"/>
      <point x="323" y="517"/>
      <point x="293" y="524"/>
      <point x="262" y="524" type="curve" smooth="yes"/>
      <point x="230" y="524"/>
      <point x="200" y="517"/>
      <point x="172" y="503" type="curve" smooth="yes"/>
      <point x="143" y="489"/>
      <point x="119" y="469"/>
      <point x="99" y="445" type="curve" smooth="yes"/>
      <point x="79" y="421"/>
      <point x="63" y="392"/>
      <point x="53" y="358" type="curve" smooth="yes"/>
      <point x="42" y="324"/>
      <point x="37" y="288"/>
      <point x="37" y="252" type="curve" smooth="yes"/>
      <point x="37" y="215"/>
      <point x="42" y="180"/>
      <point x="53" y="147" type="curve" smooth="yes"/>
      <point x="63" y="113"/>
      <point x="79" y="83"/>
      <point x="99" y="59" type="curve" smooth="yes"/>
      <point x="100" y="57"/>
      <point x="102" y="55"/>
      <point x="104" y="53" type="curve" smooth="yes"/>
      <point x="60" y="-12" type="line"/>
      <point x="128" y="-57" type="line"/>
      <point x="168" y="3" type="line"/>
      <point x="169" y="2"/>
      <point x="170" y="2"/>
      <point x="172" y="2" type="curve" smooth="yes"/>
      <point x="200" y="-12"/>
      <point x="230" y="-19"/>
      <point x="262" y="-19" type="curve" smooth="yes"/>
      <point x="293" y="-19"/>
      <point x="323" y="-12"/>
      <point x="352" y="2" type="curve" smooth="yes"/>
      <point x="380" y="15"/>
      <point x="405" y="34"/>
      <point x="425" y="59" type="curve" smooth="yes"/>
      <point x="445" y="83"/>
      <point x="460" y="113"/>
      <point x="471" y="147" type="curve" smooth="yes"/>
      <point x="481" y="180"/>
      <point x="487" y="215"/>
    </contour>
  </outline>
</glyph>
<glyph name="Ldot" format="2">
  <advance width="512"/>
  <unicode hex="013F"/>
  <outline>
    <contour>
      <point x="84" y="-8" type="line"/>
      <point x="470" y="-8" type="line"/>
      <point x="470" y="87" type="line"/>
      <point x="184" y="87" type="line"/>
      <point x="184" y="721" type="line"/>
      <point x="84" y="721" type="line"/>
    </contour>
    <contour>
      <point x="286" y="430" type="line"/>
      <point x="286" y="302" type="line"/>
      <point x="404" y="302" type="line"/>
      <point x="404" y="430" type="line"/>
    </contour>
  </outline>
</glyph>
<glyph name="ldot" format="2">
  <advance width="366"/>
  <unicode hex="0140"/>
  <outline>
    <contour>
      <point x="75" y="-8" type="line"/>
      <point x="172" y="-8" type="line"/>
      <point x="172" y="721" type="line"/>
      <point x="75" y="721" type="line"/>
    </contour>
    <contour>
      <point x="210" y="456" type="line"/>
      <point x="210" y="328" type="line"/>
      <point x="328" y="328" type="line"/>
      <point x="328" y="456" type="line"/>
    </contour>
  </outline>
</glyph>
<glyph name="lslash" format="2">
  <advance width="450"/>
  <unicode hex="0142"/>
  <outline>
    <contour>
      <point x="163" y="-8" type="line"/>
      <point x="260" y="-8" type="line"/>
      <point x="260" y="378" type="line"/>
      <point x="436" y="564" type="line"/>
      <point x="381" y="624" type="line"/>
      <point x="260" y="496" type="line"/>
      <point x="260" y="721" type="line"/>
      <point x="163" y="721" type="line"/>
      <point x="163" y="394" type="line"/>
      <point x="5" y="227" type="line"/>
      <point x="63" y="170" type="line"/>
      <point x="163" y="276" type="line"/>
    </contour>
  </outline>
</glyph>
<glyph name="napostrophe" format="2">
  <advance width="661"/>
  <unicode hex="0149"/>
  <outline>
    <contour>
      <point x="214" y="-8" type="line"/>
      <point x="306" y="-8" type="line"/>
      <point x="306" y="208" type="line" smooth="yes"/>
      <point x="306" y="220"/>
      <point x="306" y="232"/>
      <point x="308" y="244" type="curve" smooth="yes"/>
      <point x="308" y="254"/>
      <point x="310" y="266"/>
      <point x="313" y="279" type="curve" smooth="yes"/>
      <point x="322" y="323"/>
      <point x="338" y="359"/>
      <point x="360" y="387" type="curve" smooth="yes"/>
      <point x="382" y="414"/>
      <point x="404" y="427"/>
      <point x="428" y="425" type="curve" smooth="yes"/>
      <point x="447" y="423"/>
      <point x="461" y="418"/>
      <point x="471" y="410" type="curve" smooth="yes"/>
      <point x="480" y="402"/>
      <point x="487" y="391"/>
      <point x="491" y="378" type="curve" smooth="yes"/>
      <point x="496" y="364"/>
      <point x="499" y="347"/>
      <point x="501" y="327" type="curve" smooth="yes"/>
      <point x="501" y="307"/>
      <point x="502" y="290"/>
      <point x="502" y="277" type="curve" smooth="yes"/>
      <point x="502" y="-8" type="line"/>
      <point x="593" y="-8" type="line"/>
      <point x="593" y="357" type="line" smooth="yes"/>
      <point x="591" y="410"/>
      <point x="577" y="451"/>
      <point x="550" y="480" type="curve" smooth="yes"/>
      <point x="522" y="508"/>
      <point x="487" y="523"/>
      <point x="445" y="523" type="curve" smooth="yes"/>
      <point x="407" y="523"/>
      <point x="376" y="512"/>
      <point x="352" y="491" type="curve" smooth="yes"/>
      <point x="327" y="469"/>
      <point x="312" y="451"/>
      <point x="306" y="437" type="curve"/>
      <point x="306" y="512" type="line"/>
      <point x="214" y="512" type="line"/>
    </contour>
    <contour>
      <point x="172" y="800" type="line"/>
      <point x="47" y="800" type="line"/>
      <point x="47" y="667" type="line"/>
      <point x="92" y="667" type="line"/>
      <point x="91" y="666"/>
      <point x="91" y="664"/>
      <point x="91" y="662" type="curve" smooth="yes"/>
      <point x="90" y="656"/>
      <point x="88" y="650"/>
      <point x="86" y="646" type="curve" smooth="yes"/>
      <point x="83" y="642"/>
      <point x="79" y="638"/>
      <point x="73" y="634" type="curve" smooth="yes"/>
      <point x="67" y="629"/>
      <point x="54" y="622"/>
      <point x="34" y="614" type="curve"/>
      <point x="84" y="548" type="line"/>
      <point x="104" y="560"/>
      <point x="120" y="570"/>
      <point x="130" y="580" type="curve" smooth="yes"/>
      <point x="139" y="588"/>
      <point x="147" y="599"/>
      <point x="155" y="611" type="curve" smooth="yes"/>
      <point x="161" y="622"/>
      <point x="166" y="637"/>
      <point x="169" y="655" type="curve" smooth="yes"/>
      <point x="171" y="673"/>
      <point x="172" y="689"/>
      <point x="172" y="703" type="curve" smooth="yes"/>
    </contour>
  </outline>
</glyph>
<glyph name="Eng" format="2">
  <advance width="599"/>
  <unicode hex="014A"/>
  <outline>
    <contour>
      <point x="527" y="721" type="line"/>
      <point x="429" y="721" type="line"/>
      <point x="429" y="175" type="line"/>
      <point x="178" y="721" type="line"/>
      <point x="62" y="721" type="line"/>
      <point x="62" y="-8" type="line"/>
      <point x="160" y="-8" type="line"/>
      <point x="160" y="538" type="line"/>
      <point x="411" y="-8" type="line"/>
      <point x="429" y="-8" type="line"/>
      <point x="429" y="-17" type="line" smooth="yes"/>
      <point x="429" y="-32"/>
      <point x="419" y="-46"/>
      <point x="400" y="-60" type="curve" smooth="yes"/>
      <point x="380" y="-73"/>
      <point x="361" y="-79"/>
      <point x="341" y="-77" type="curve" smooth="yes"/>
      <point x="325" y="-75"/>
      <point x="310" y="-73"/>
      <point x="295" y="-71" type="curve" smooth="yes"/>
      <point x="279" y="-67"/>
      <point x="260" y="-61"/>
      <point x="238" y="-52" type="curve"/>
      <point x="238" y="-154" type="line"/>
      <point x="258" y="-160"/>
      <point x="274" y="-165"/>
      <point x="288" y="-167" type="curve" smooth="yes"/>
      <point x="301" y="-168"/>
      <point x="317" y="-169"/>
      <point x="336" y="-169" type="curve" smooth="yes"/>
      <point x="373" y="-169"/>
      <point x="404" y="-164"/>
      <point x="429" y="-154" type="curve" smooth="yes"/>
      <point x="453" y="-143"/>
      <point x="473" y="-129"/>
      <point x="488" y="-111" type="curve" smooth="yes"/>
      <point x="502" y="-95"/>
      <point x="512" y="-79"/>
      <point x="518" y="-63" type="curve" smooth="yes"/>
      <point x="524" y="-45"/>
      <point x="527" y="-27"/>
      <point x="527" y="-9" type="curve" smooth="yes"/>
    </contour>
  </outline>
</glyph>
<glyph name="ring" format="2">
  <advance width="838"/>
  <unicode hex="02DA"/>
  <outline>
    <contour>
      <point x="458" y="702" type="curve" smooth="yes"/>
      <point x="458" y="690"/>
      <point x="454" y="681"/>
      <point x="447" y="674" type="curve" smooth="yes"/>
      <point x="439" y="666"/>
      <point x="429" y="662"/>
      <point x="419" y="662" type="curve" smooth="yes"/>
      <point x="408" y="662"/>
      <point x="399" y="666"/>
      <point x="392" y="674" type="curve" smooth="yes"/>
      <point x="384" y="681"/>
      <point x="380" y="690"/>
      <point x="380" y="702" type="curve" smooth="yes"/>
      <point x="380" y="713"/>
      <point x="384" y="723"/>
      <point x="392" y="731" type="curve" smooth="yes"/>
      <point x="399" y="738"/>
      <point x="408" y="742"/>
      <point x="419" y="742" type="curve" smooth="yes"/>
      <point x="429" y="742"/>
      <point x="439" y="738"/>
      <point x="447" y="731" type="curve" smooth="yes"/>
      <point x="454" y="723"/>
      <point x="458" y="713"/>
    </contour>
    <contour>
      <point x="518" y="702" type="curve" smooth="yes"/>
      <point x="518" y="728"/>
      <point x="508" y="751"/>
      <point x="489" y="771" type="curve" smooth="yes"/>
      <point x="469" y="790"/>
      <point x="446" y="800"/>
      <point x="419" y="800" type="curve" smooth="yes"/>
      <point x="391" y="800"/>
      <point x="368" y="790"/>
      <point x="349" y="771" type="curve" smooth="yes"/>
      <point x="329" y="751"/>
      <point x="320" y="728"/>
      <point x="320" y="702" type="curve" smooth="yes"/>
      <point x="320" y="675"/>
      <point x="329" y="652"/>
      <point x="349" y="633" type="curve" smooth="yes"/>
      <point x="368" y="613"/>
      <point x="391" y="604"/>
      <point x="419" y="604" type="curve" smooth="yes"/>
      <point x="446" y="604"/>
      <point x="469" y="613"/>
      <point x="489" y="633" type="curve" smooth="yes"/>
      <point x="508" y="652"/>
      <point x="518" y="675"/>
    </contour>
  </outline>
</glyph>
<glyph name="uni0308" format="2">
  <advance width="480"/>
  <unicode hex="0308"/>
  <outline>
    <contour>
      <point x="92" y="670" type="line"/>
      <point x="92" y="543" type="line"/>
      <point x="211" y="543" type="line"/>
      <point x="211" y="670" type="line"/>
    </contour>
    <contour>
      <point x="280" y="670" type="line"/>
      <point x="280" y="543" type="line"/>
      <point x="400" y="543" type="line"/>
      <point x="400" y="670" type="line"/>
    </contour>
  </outline>
</glyph>
<glyph name="Iota" format="2">
  <advance width="264"/>
  <unicode hex="0399"/>
  <outline>
    <contour>
      <point x="75" y="-8" type="line"/>
      <point x="178" y="-8" type="line"/>
      <point x="178" y="721" type="line"/>
      <point x="75" y="721" type="line"/>
    </contour>
  </outline>
</glyph>
<glyph name="Lambda" format="2">
  <advance width="559"/>
  <unicode hex="039B"/>
  <outline>
    <contour>
      <point x="326" y="721" type="line"/>
      <point x="216" y="721" type="line"/>
      <point x="-13" y="-8" type="line"/>
      <point x="95" y="-8" type="line"/>
      <point x="271" y="571" type="line"/>
      <point x="447" y="-8" type="line"/>
      <point x="555" y="-8" type="line"/>
    </contour>
  </outline>
</glyph>
<glyph name="Mu" format="2">
  <advance width="757"/>
  <unicode hex="039C"/>
  <outline>
    <contour>
      <point x="419" y="-8" type="line"/>
      <point x="587" y="523" type="line"/>
      <point x="587" y="-8" type="line"/>
      <point x="680" y="-8" type="line"/>
      <point x="680" y="721" type="line"/>
      <point x="550" y="721" type="line"/>
      <point x="374" y="161" type="line"/>
      <point x="197" y="721" type="line"/>
      <point x="67" y="721" type="line"/>
      <point x="67" y="-8" type="line"/>
      <point x="160" y="-8" type="line"/>
      <point x="160" y="523" type="line"/>
      <point x="328" y="-8" type="line"/>
    </contour>
  </outline>
</glyph>
<glyph name="Nu" format="2">
  <advance width="607"/>
  <unicode hex="039D"/>
  <outline>
    <contour>
      <point x="67" y="-8" type="line"/>
      <point x="165" y="-8" type="line"/>
      <point x="165" y="530" type="line"/>
      <point x="416" y="-8" type="line"/>
      <point x="532" y="-8" type="line"/>
      <point x="532" y="721" type="line"/>
      <point x="434" y="721" type="line"/>
      <point x="434" y="181" type="line"/>
      <point x="183" y="721" type="line"/>
      <point x="67" y="721" type="line"/>
    </contour>
  </outline>
</glyph>
<glyph name="Xi" format="2">
  <advance width="499"/>
  <unicode hex="039E"/>
  <outline>
    <contour>
      <point x="463" y="-8" type="line"/>
      <point x="463" y="87" type="line"/>
      <point x="27" y="87" type="line"/>
      <point x="27" y="-8" type="line"/>
    </contour>
    <contour>
      <point x="35" y="721" type="line"/>
      <point x="35" y="626" type="line"/>
      <point x="455" y="626" type="line"/>
      <point x="455" y="721" type="line"/>
    </contour>
    <contour>
      <point x="445" y="326" type="line"/>
      <point x="445" y="420" type="line"/>
      <point x="46" y="420" type="line"/>
      <point x="46" y="326" type="line"/>
    </contour>
  </outline>
</glyph>
<glyph name="zeta" format="2">
  <advance width="406"/>
  <unicode hex="03B6"/>
  <outline>
    <contour>
      <point x="134" y="-165" type="line"/>
      <point x="206" y="-165" type="line" smooth="yes"/>
      <point x="230" y="-165"/>
      <point x="252" y="-162"/>
      <point x="272" y="-158" type="curve" smooth="yes"/>
      <point x="291" y="-153"/>
      <point x="308" y="-146"/>
      <point x="324" y="-136" type="curve" smooth="yes"/>
      <point x="340" y="-125"/>
      <point x="354" y="-112"/>
      <point x="364" y="-97" type="curve" smooth="yes"/>
      <point x="373" y="-81"/>
      <point x="378" y="-62"/>
      <point x="378" y="-39" type="curve" smooth="yes"/>
      <point x="378" y="1"/>
      <point x="366" y="33"/>
      <point x="342" y="58" type="curve" smooth="yes"/>
      <point x="317" y="82"/>
      <point x="278" y="95"/>
      <point x="226" y="95" type="curve" smooth="yes"/>
      <point x="209" y="95"/>
      <point x="195" y="97"/>
      <point x="184" y="101" type="curve" smooth="yes"/>
      <point x="172" y="105"/>
      <point x="161" y="111"/>
      <point x="153" y="121" type="curve" smooth="yes"/>
      <point x="143" y="130"/>
      <point x="136" y="142"/>
      <point x="131" y="157" type="curve" smooth="yes"/>
      <point x="125" y="171"/>
      <point x="122" y="191"/>
      <point x="122" y="217" type="curve" smooth="yes"/>
      <point x="122" y="279"/>
      <point x="129" y="331"/>
      <point x="144" y="374" type="curve" smooth="yes"/>
      <point x="158" y="416"/>
      <point x="177" y="453"/>
      <point x="201" y="487" type="curve" smooth="yes"/>
      <point x="223" y="521"/>
      <point x="248" y="549"/>
      <point x="276" y="572" type="curve" smooth="yes"/>
      <point x="302" y="594"/>
      <point x="330" y="617"/>
      <point x="360" y="641" type="curve"/>
      <point x="360" y="721" type="line"/>
      <point x="21" y="721" type="line"/>
      <point x="21" y="634" type="line"/>
      <point x="215" y="634" type="line"/>
      <point x="208" y="628"/>
      <point x="191" y="612"/>
      <point x="165" y="585" type="curve" smooth="yes"/>
      <point x="137" y="557"/>
      <point x="113" y="525"/>
      <point x="92" y="489" type="curve" smooth="yes"/>
      <point x="70" y="451"/>
      <point x="52" y="410"/>
      <point x="40" y="367" type="curve" smooth="yes"/>
      <point x="27" y="323"/>
      <point x="21" y="272"/>
      <point x="21" y="214" type="curve" smooth="yes"/>
      <point x="21" y="146"/>
      <point x="40" y="93"/>
      <point x="80" y="55" type="curve" smooth="yes"/>
      <point x="98" y="37"/>
      <point x="119" y="25"/>
      <point x="145" y="19" type="curve" smooth="yes"/>
      <point x="169" y="11"/>
      <point x="194" y="8"/>
      <point x="218" y="8" type="curve" smooth="yes"/>
      <point x="243" y="8"/>
      <point x="259" y="4"/>
      <point x="267" y="-2" type="curve" smooth="yes"/>
      <point x="273" y="-8"/>
      <point x="277" y="-20"/>
      <point x="277" y="-37" type="curve" smooth="yes"/>
      <point x="277" y="-53"/>
      <point x="271" y="-64"/>
      <point x="260" y="-70" type="curve" smooth="yes"/>
      <point x="248" y="-75"/>
      <point x="229" y="-78"/>
      <point x="202" y="-78" type="curve" smooth="yes"/>
      <point x="134" y="-78" type="line"/>
    </contour>
  </outline>
</glyph>
<glyph name="phi1" format="2">
  <advance width="838"/>
  <unicode hex="03D5"/>
  <outline>
    <contour>
      <point x="406" y="359" type="curve" smooth="yes"/>
      <point x="401" y="337"/>
      <point x="396" y="315"/>
      <point x="391" y="294" type="curve" smooth="yes"/>
      <point x="385" y="272"/>
      <point x="380" y="253"/>
      <point x="375" y="236" type="curve" smooth="yes"/>
      <point x="370" y="218"/>
      <point x="366" y="204"/>
      <point x="363" y="193" type="curve" smooth="yes"/>
      <point x="359" y="181"/>
      <point x="357" y="175"/>
      <point x="357" y="175" type="curve" smooth="yes"/>
      <point x="356" y="175"/>
      <point x="351" y="177"/>
      <point x="343" y="181" type="curve" smooth="yes"/>
      <point x="333" y="184"/>
      <point x="324" y="190"/>
      <point x="314" y="199" type="curve" smooth="yes"/>
      <point x="303" y="207"/>
      <point x="293" y="219"/>
      <point x="285" y="233" type="curve" smooth="yes"/>
      <point x="276" y="246"/>
      <point x="272" y="263"/>
      <point x="272" y="285" type="curve" smooth="yes"/>
      <point x="271" y="317"/>
      <point x="276" y="345"/>
      <point x="286" y="371" type="curve" smooth="yes"/>
      <point x="296" y="396"/>
      <point x="312" y="419"/>
      <point x="335" y="440" type="curve" smooth="yes"/>
      <point x="342" y="446"/>
      <point x="351" y="452"/>
      <point x="362" y="456" type="curve" smooth="yes"/>
      <point x="372" y="459"/>
      <point x="381" y="461"/>
      <point x="391" y="463" type="curve" smooth="yes"/>
      <point x="400" y="465"/>
      <point x="408" y="466"/>
      <point x="415" y="466" type="curve" smooth="yes"/>
      <point x="421" y="465"/>
      <point x="425" y="465"/>
      <point x="425" y="465" type="curve"/>
      <point x="425" y="465"/>
      <point x="424" y="460"/>
      <point x="423" y="452" type="curve" smooth="yes"/>
      <point x="421" y="443"/>
      <point x="419" y="433"/>
      <point x="418" y="422" type="curve" smooth="yes"/>
      <point x="415" y="410"/>
      <point x="413" y="398"/>
      <point x="411" y="387" type="curve" smooth="yes"/>
      <point x="409" y="375"/>
      <point x="407" y="365"/>
    </contour>
    <contour>
      <point x="519" y="260" type="curve" smooth="yes"/>
      <point x="503" y="237"/>
      <point x="488" y="220"/>
      <point x="474" y="209" type="curve" smooth="yes"/>
      <point x="459" y="197"/>
      <point x="445" y="188"/>
      <point x="433" y="183" type="curve" smooth="yes"/>
      <point x="421" y="178"/>
      <point x="411" y="176"/>
      <point x="403" y="176" type="curve" smooth="yes"/>
      <point x="395" y="175"/>
      <point x="391" y="175"/>
      <point x="391" y="175" type="curve"/>
      <point x="391" y="175"/>
      <point x="392" y="180"/>
      <point x="395" y="192" type="curve" smooth="yes"/>
      <point x="397" y="202"/>
      <point x="400" y="215"/>
      <point x="404" y="231" type="curve" smooth="yes"/>
      <point x="408" y="247"/>
      <point x="413" y="264"/>
      <point x="418" y="283" type="curve" smooth="yes"/>
      <point x="422" y="301"/>
      <point x="425" y="317"/>
      <point x="429" y="333" type="curve" smooth="yes"/>
      <point x="432" y="345"/>
      <point x="436" y="358"/>
      <point x="440" y="373" type="curve" smooth="yes"/>
      <point x="443" y="387"/>
      <point x="446" y="400"/>
      <point x="449" y="413" type="curve" smooth="yes"/>
      <point x="451" y="425"/>
      <point x="454" y="436"/>
      <point x="457" y="445" type="curve" smooth="yes"/>
      <point x="459" y="453"/>
      <point x="460" y="457"/>
      <point x="461" y="457" type="curve" smooth="yes"/>
      <point x="461" y="457"/>
      <point x="467" y="455"/>
      <point x="481" y="449" type="curve" smooth="yes"/>
      <point x="493" y="443"/>
      <point x="506" y="432"/>
      <point x="518" y="418" type="curve" smooth="yes"/>
      <point x="534" y="396"/>
      <point x="543" y="370"/>
      <point x="543" y="340" type="curve" smooth="yes"/>
      <point x="542" y="308"/>
      <point x="534" y="282"/>
    </contour>
    <contour>
      <point x="466" y="482" type="curve"/>
      <point x="466" y="482"/>
      <point x="467" y="485"/>
      <point x="469" y="493" type="curve" smooth="yes"/>
      <point x="470" y="500"/>
      <point x="473" y="510"/>
      <point x="477" y="522" type="curve" smooth="yes"/>
      <point x="479" y="533"/>
      <point x="483" y="546"/>
      <point x="487" y="561" type="curve" smooth="yes"/>
      <point x="491" y="575"/>
      <point x="495" y="590"/>
      <point x="501" y="606" type="curve" smooth="yes"/>
      <point x="506" y="626"/>
      <point x="512" y="645"/>
      <point x="520" y="663" type="curve" smooth="yes"/>
      <point x="527" y="679"/>
      <point x="533" y="694"/>
      <point x="537" y="707" type="curve" smooth="yes"/>
      <point x="540" y="720"/>
      <point x="541" y="731"/>
      <point x="539" y="740" type="curve" smooth="yes"/>
      <point x="537" y="748"/>
      <point x="529" y="755"/>
      <point x="517" y="761" type="curve" smooth="yes"/>
      <point x="507" y="764"/>
      <point x="500" y="763"/>
      <point x="494" y="758" type="curve" smooth="yes"/>
      <point x="487" y="752"/>
      <point x="481" y="745"/>
      <point x="477" y="735" type="curve" smooth="yes"/>
      <point x="472" y="725"/>
      <point x="468" y="714"/>
      <point x="466" y="702" type="curve" smooth="yes"/>
      <point x="462" y="689"/>
      <point x="460" y="677"/>
      <point x="460" y="667" type="curve" smooth="yes"/>
      <point x="450" y="600"/>
      <point x="444" y="554"/>
      <point x="440" y="529" type="curve" smooth="yes"/>
      <point x="435" y="503"/>
      <point x="433" y="489"/>
      <point x="433" y="489" type="curve" smooth="yes"/>
      <point x="432" y="489"/>
      <point x="430" y="489"/>
      <point x="426" y="489" type="curve" smooth="yes"/>
      <point x="422" y="489"/>
      <point x="417" y="488"/>
      <point x="411" y="488" type="curve" smooth="yes"/>
      <point x="404" y="487"/>
      <point x="396" y="486"/>
      <point x="388" y="485" type="curve" smooth="yes"/>
      <point x="378" y="483"/>
      <point x="368" y="480"/>
      <point x="358" y="477" type="curve" smooth="yes"/>
      <point x="334" y="468"/>
      <point x="313" y="456"/>
      <point x="295" y="440" type="curve" smooth="yes"/>
      <point x="276" y="423"/>
      <point x="260" y="405"/>
      <point x="248" y="385" type="curve" smooth="yes"/>
      <point x="234" y="365"/>
      <point x="225" y="344"/>
      <point x="220" y="322" type="curve" smooth="yes"/>
      <point x="214" y="300"/>
      <point x="212" y="279"/>
      <point x="216" y="261" type="curve" smooth="yes"/>
      <point x="220" y="228"/>
      <point x="229" y="202"/>
      <point x="243" y="184" type="curve" smooth="yes"/>
      <point x="256" y="165"/>
      <point x="270" y="151"/>
      <point x="284" y="142" type="curve" smooth="yes"/>
      <point x="298" y="132"/>
      <point x="311" y="126"/>
      <point x="323" y="124" type="curve" smooth="yes"/>
      <point x="334" y="121"/>
      <point x="341" y="120"/>
      <point x="343" y="120" type="curve"/>
      <point x="343" y="119"/>
      <point x="340" y="107"/>
      <point x="334" y="84" type="curve" smooth="yes"/>
      <point x="328" y="60"/>
      <point x="317" y="33"/>
      <point x="303" y="2" type="curve" smooth="yes"/>
      <point x="297" y="-9"/>
      <point x="292" y="-20"/>
      <point x="288" y="-30" type="curve" smooth="yes"/>
      <point x="283" y="-40"/>
      <point x="280" y="-49"/>
      <point x="278" y="-57" type="curve" smooth="yes"/>
      <point x="276" y="-65"/>
      <point x="276" y="-72"/>
      <point x="279" y="-78" type="curve" smooth="yes"/>
      <point x="281" y="-83"/>
      <point x="287" y="-87"/>
      <point x="296" y="-90" type="curve" smooth="yes"/>
      <point x="306" y="-94"/>
      <point x="316" y="-91"/>
      <point x="326" y="-81" type="curve" smooth="yes"/>
      <point x="334" y="-70"/>
      <point x="341" y="-47"/>
      <point x="345" y="-11" type="curve" smooth="yes"/>
      <point x="346" y="4"/>
      <point x="348" y="19"/>
      <point x="352" y="35" type="curve" smooth="yes"/>
      <point x="354" y="49"/>
      <point x="358" y="63"/>
      <point x="362" y="75" type="curve" smooth="yes"/>
      <point x="365" y="87"/>
      <point x="368" y="97"/>
      <point x="371" y="105" type="curve" smooth="yes"/>
      <point x="373" y="113"/>
      <point x="375" y="117"/>
      <point x="376" y="119" type="curve" smooth="yes"/>
      <point x="376" y="119"/>
      <point x="382" y="119"/>
      <point x="392" y="121" type="curve" smooth="yes"/>
      <point x="401" y="122"/>
      <point x="413" y="125"/>
      <point x="428" y="131" type="curve" smooth="yes"/>
      <point x="442" y="136"/>
      <point x="457" y="144"/>
      <point x="475" y="155" type="curve" smooth="yes"/>
      <point x="492" y="165"/>
      <point x="509" y="178"/>
      <point x="525" y="196" type="curve" smooth="yes"/>
      <point x="538" y="211"/>
      <point x="549" y="231"/>
      <point x="559" y="256" type="curve" smooth="yes"/>
      <point x="568" y="280"/>
      <point x="572" y="306"/>
      <point x="571" y="336" type="curve" smooth="yes"/>
      <point x="569" y="356"/>
      <point x="565" y="374"/>
      <point x="561" y="392" type="curve" smooth="yes"/>
      <point x="556" y="408"/>
      <point x="550" y="423"/>
      <point x="542" y="437" type="curve" smooth="yes"/>
      <point x="536" y="443"/>
      <point x="530" y="450"/>
      <point x="522" y="456" type="curve" smooth="yes"/>
      <point x="513" y="461"/>
      <point x="505" y="466"/>
      <point x="497" y="470" type="curve" smooth="yes"/>
      <point x="489" y="473"/>
      <point x="482" y="476"/>
      <point x="476" y="479" type="curve" smooth="yes"/>
      <point x="470" y="481"/>
      <point x="466" y="482"/>
    </contour>
  </outline>
</glyph>
<glyph name="uni0401" format="2">
  <advance width="480"/>
  <unicode hex="0401"/>
  <outline>
    <contour>
      <point x="69" y="-8" type="line"/>
      <point x="444" y="-8" type="line"/>
      <point x="444" y="87" type="line"/>
      <point x="169" y="87" type="line"/>
      <point x="169" y="325" type="line"/>
      <point x="425" y="325" type="line"/>
      <point x="425" y="419" type="line"/>
      <point x="169" y="419" type="line"/>
      <point x="169" y="622" type="line"/>
      <point x="436" y="622" type="line"/>
      <point x="436" y="717" type="line"/>
      <point x="69" y="717" type="line"/>
    </contour>
    <contour>
      <point x="115" y="830" type="line"/>
      <point x="115" y="723" type="line"/>
      <point x="225" y="723" type="line"/>
      <point x="225" y="830" type="line"/>
    </contour>
    <contour>
      <point x="293" y="830" type="line"/>
      <point x="293" y="723" type="line"/>
      <point x="403" y="723" type="line"/>
      <point x="403" y="830" type="line"/>
    </contour>
  </outline>
</glyph>
<glyph name="uni041B" format="2">
  <advance width="654"/>
  <unicode hex="041B"/>
  <outline>
    <contour>
      <point x="292" y="627" type="line"/>
      <point x="502" y="627" type="line"/>
      <point x="502" y="-8" type="line"/>
      <point x="603" y="-8" type="line"/>
      <point x="603" y="721" type="line"/>
      <point x="191" y="721" type="line"/>
      <point x="191" y="174" type="line" smooth="yes"/>
      <point x="191" y="141"/>
      <point x="185" y="116"/>
      <point x="173" y="100" type="curve" smooth="yes"/>
      <point x="160" y="83"/>
      <point x="141" y="75"/>
      <point x="115" y="75" type="curve" smooth="yes"/>
      <point x="100" y="75"/>
      <point x="87" y="77"/>
      <point x="75" y="81" type="curve" smooth="yes"/>
      <point x="62" y="84"/>
      <point x="44" y="90"/>
      <point x="22" y="100" type="curve"/>
      <point x="22" y="-4" type="line"/>
      <point x="55" y="-14"/>
      <point x="84" y="-19"/>
      <point x="110" y="-19" type="curve" smooth="yes"/>
      <point x="148" y="-19"/>
      <point x="179" y="-13"/>
      <point x="203" y="-2" type="curve" smooth="yes"/>
      <point x="226" y="9"/>
      <point x="245" y="24"/>
      <point x="259" y="42" type="curve" smooth="yes"/>
      <point x="271" y="60"/>
      <point x="280" y="79"/>
      <point x="285" y="100" type="curve" smooth="yes"/>
      <point x="289" y="120"/>
      <point x="292" y="140"/>
      <point x="292" y="159" type="curve" smooth="yes"/>
    </contour>
  </outline>
</glyph>
<glyph name="uni041E" format="2">
  <advance width="660"/>
  <unicode hex="041E"/>
  <outline>
    <contour>
      <point x="329" y="-19" type="curve" smooth="yes"/>
      <point x="380" y="-19"/>
      <point x="425" y="-8"/>
      <point x="463" y="13" type="curve" smooth="yes"/>
      <point x="500" y="34"/>
      <point x="531" y="62"/>
      <point x="556" y="98" type="curve" smooth="yes"/>
      <point x="579" y="134"/>
      <point x="596" y="174"/>
      <point x="608" y="218" type="curve" smooth="yes"/>
      <point x="619" y="262"/>
      <point x="625" y="309"/>
      <point x="625" y="359" type="curve" smooth="yes"/>
      <point x="625" y="410"/>
      <point x="618" y="458"/>
      <point x="606" y="503" type="curve" smooth="yes"/>
      <point x="593" y="547"/>
      <point x="575" y="587"/>
      <point x="551" y="621" type="curve" smooth="yes"/>
      <point x="525" y="655"/>
      <point x="494" y="683"/>
      <point x="458" y="704" type="curve" smooth="yes"/>
      <point x="420" y="724"/>
      <point x="377" y="734"/>
      <point x="329" y="734" type="curve" smooth="yes"/>
      <point x="280" y="734"/>
      <point x="237" y="723"/>
      <point x="201" y="702" type="curve" smooth="yes"/>
      <point x="163" y="680"/>
      <point x="132" y="651"/>
      <point x="106" y="617" type="curve" smooth="yes"/>
      <point x="82" y="581"/>
      <point x="64" y="542"/>
      <point x="52" y="498" type="curve" smooth="yes"/>
      <point x="39" y="454"/>
      <point x="33" y="407"/>
      <point x="33" y="358" type="curve" smooth="yes"/>
      <point x="33" y="305"/>
      <point x="39" y="256"/>
      <point x="52" y="212" type="curve" smooth="yes"/>
      <point x="64" y="167"/>
      <point x="82" y="128"/>
      <point x="107" y="94" type="curve" smooth="yes"/>
      <point x="132" y="59"/>
      <point x="163" y="32"/>
      <point x="201" y="12" type="curve" smooth="yes"/>
      <point x="237" y="-8"/>
      <point x="280" y="-19"/>
    </contour>
    <contour>
      <point x="137" y="359" type="curve" smooth="yes"/>
      <point x="137" y="400"/>
      <point x="141" y="438"/>
      <point x="151" y="473" type="curve" smooth="yes"/>
      <point x="160" y="507"/>
      <point x="173" y="537"/>
      <point x="190" y="562" type="curve" smooth="yes"/>
      <point x="207" y="587"/>
      <point x="227" y="607"/>
      <point x="251" y="621" type="curve" smooth="yes"/>
      <point x="273" y="635"/>
      <point x="299" y="642"/>
      <point x="328" y="643" type="curve" smooth="yes"/>
      <point x="360" y="643"/>
      <point x="387" y="635"/>
      <point x="411" y="621" type="curve" smooth="yes"/>
      <point x="434" y="606"/>
      <point x="454" y="586"/>
      <point x="470" y="560" type="curve" smooth="yes"/>
      <point x="486" y="534"/>
      <point x="499" y="504"/>
      <point x="508" y="470" type="curve" smooth="yes"/>
      <point x="516" y="435"/>
      <point x="520" y="398"/>
      <point x="520" y="360" type="curve" smooth="yes"/>
      <point x="520" y="318"/>
      <point x="516" y="279"/>
      <point x="508" y="245" type="curve" smooth="yes"/>
      <point x="499" y="209"/>
      <point x="487" y="179"/>
      <point x="471" y="153" type="curve" smooth="yes"/>
      <point x="455" y="127"/>
      <point x="435" y="108"/>
      <point x="412" y="94" type="curve" smooth="yes"/>
      <point x="388" y="79"/>
      <point x="361" y="72"/>
      <point x="329" y="72" type="curve" smooth="yes"/>
      <point x="297" y="72"/>
      <point x="269" y="79"/>
      <point x="246" y="95" type="curve" smooth="yes"/>
      <point x="222" y="110"/>
      <point x="202" y="131"/>
      <point x="187" y="157" type="curve" smooth="yes"/>
      <point x="170" y="184"/>
      <point x="158" y="215"/>
      <point x="150" y="250" type="curve" smooth="yes"/>
      <point x="141" y="284"/>
      <point x="137" y="320"/>
    </contour>
  </outline>
</glyph>
<glyph name="uni0420" format="2">
  <advance width="510"/>
  <unicode hex="0420"/>
  <outline>
    <contour>
      <point x="182" y="280" type="line"/>
      <point x="232" y="280" type="line" smooth="yes"/>
      <point x="263" y="280"/>
      <point x="293" y="283"/>
      <point x="322" y="291" type="curve" smooth="yes"/>
      <point x="350" y="298"/>
      <point x="376" y="310"/>
      <point x="401" y="328" type="curve" smooth="yes"/>
      <point x="423" y="345"/>
      <point x="442" y="368"/>
      <point x="457" y="398" type="curve" smooth="yes"/>
      <point x="471" y="426"/>
      <point x="479" y="462"/>
      <point x="479" y="505" type="curve" smooth="yes"/>
      <point x="479" y="546"/>
      <point x="471" y="581"/>
      <point x="457" y="609" type="curve" smooth="yes"/>
      <point x="442" y="637"/>
      <point x="423" y="659"/>
      <point x="399" y="677" type="curve" smooth="yes"/>
      <point x="375" y="692"/>
      <point x="348" y="703"/>
      <point x="320" y="711" type="curve" smooth="yes"/>
      <point x="290" y="717"/>
      <point x="261" y="721"/>
      <point x="231" y="721" type="curve" smooth="yes"/>
      <point x="58" y="721" type="line"/>
      <point x="58" y="-8" type="line"/>
      <point x="156" y="-8" type="line"/>
      <point x="156" y="280" type="line"/>
    </contour>
    <contour>
      <point x="156" y="377" type="line"/>
      <point x="156" y="626" type="line"/>
      <point x="234" y="626" type="line" smooth="yes"/>
      <point x="250" y="626"/>
      <point x="267" y="624"/>
      <point x="285" y="620" type="curve" smooth="yes"/>
      <point x="302" y="615"/>
      <point x="317" y="608"/>
      <point x="330" y="599" type="curve" smooth="yes"/>
      <point x="342" y="589"/>
      <point x="353" y="577"/>
      <point x="363" y="562" type="curve" smooth="yes"/>
      <point x="371" y="546"/>
      <point x="376" y="527"/>
      <point x="376" y="505" type="curve" smooth="yes"/>
      <point x="376" y="479"/>
      <point x="372" y="458"/>
      <point x="364" y="442" type="curve" smooth="yes"/>
      <point x="355" y="426"/>
      <point x="344" y="412"/>
      <point x="331" y="402" type="curve" smooth="yes"/>
      <point x="319" y="392"/>
      <point x="304" y="386"/>
      <point x="288" y="383" type="curve" smooth="yes"/>
      <point x="271" y="379"/>
      <point x="252" y="377"/>
      <point x="230" y="377" type="curve" smooth="yes"/>
      <point x="182" y="377" type="line"/>
    </contour>
  </outline>
</glyph>
<glyph name="uni0421" format="2">
  <advance width="581"/>
  <unicode hex="0421"/>
  <outline>
    <contour>
      <point x="528" y="153" type="line"/>
      <point x="500" y="126"/>
      <point x="472" y="106"/>
      <point x="443" y="94" type="curve" smooth="yes"/>
      <point x="413" y="80"/>
      <point x="380" y="74"/>
      <point x="343" y="74" type="curve" smooth="yes"/>
      <point x="309" y="74"/>
      <point x="277" y="85"/>
      <point x="245" y="107" type="curve" smooth="yes"/>
      <point x="213" y="129"/>
      <point x="189" y="155"/>
      <point x="173" y="185" type="curve" smooth="yes"/>
      <point x="158" y="216"/>
      <point x="148" y="248"/>
      <point x="143" y="281" type="curve" smooth="yes"/>
      <point x="137" y="313"/>
      <point x="134" y="342"/>
      <point x="134" y="367" type="curve" smooth="yes"/>
      <point x="134" y="411"/>
      <point x="139" y="450"/>
      <point x="149" y="484" type="curve" smooth="yes"/>
      <point x="159" y="517"/>
      <point x="173" y="546"/>
      <point x="191" y="570" type="curve" smooth="yes"/>
      <point x="208" y="594"/>
      <point x="228" y="612"/>
      <point x="252" y="624" type="curve" smooth="yes"/>
      <point x="274" y="635"/>
      <point x="299" y="641"/>
      <point x="325" y="641" type="curve" smooth="yes"/>
      <point x="341" y="641"/>
      <point x="359" y="637"/>
      <point x="377" y="631" type="curve" smooth="yes"/>
      <point x="394" y="624"/>
      <point x="408" y="615"/>
      <point x="418" y="604" type="curve" smooth="yes"/>
      <point x="427" y="590"/>
      <point x="434" y="577"/>
      <point x="439" y="563" type="curve" smooth="yes"/>
      <point x="443" y="548"/>
      <point x="446" y="527"/>
      <point x="446" y="501" type="curve"/>
      <point x="552" y="501" type="line"/>
      <point x="551" y="521"/>
      <point x="550" y="540"/>
      <point x="548" y="557" type="curve" smooth="yes"/>
      <point x="546" y="573"/>
      <point x="542" y="588"/>
      <point x="536" y="602" type="curve" smooth="yes"/>
      <point x="517" y="644"/>
      <point x="489" y="677"/>
      <point x="451" y="700" type="curve" smooth="yes"/>
      <point x="413" y="722"/>
      <point x="371" y="734"/>
      <point x="325" y="734" type="curve" smooth="yes"/>
      <point x="275" y="734"/>
      <point x="231" y="723"/>
      <point x="195" y="702" type="curve" smooth="yes"/>
      <point x="157" y="680"/>
      <point x="126" y="653"/>
      <point x="102" y="619" type="curve" smooth="yes"/>
      <point x="76" y="585"/>
      <point x="58" y="546"/>
      <point x="47" y="504" type="curve" smooth="yes"/>
      <point x="35" y="461"/>
      <point x="29" y="416"/>
      <point x="29" y="370" type="curve" smooth="yes"/>
      <point x="29" y="323"/>
      <point x="34" y="277"/>
      <point x="46" y="233" type="curve" smooth="yes"/>
      <point x="57" y="187"/>
      <point x="75" y="146"/>
      <point x="99" y="108" type="curve" smooth="yes"/>
      <point x="123" y="70"/>
      <point x="157" y="40"/>
      <point x="201" y="17" type="curve" smooth="yes"/>
      <point x="243" y="-7"/>
      <point x="286" y="-19"/>
      <point x="328" y="-19" type="curve" smooth="yes"/>
      <point x="372" y="-19"/>
      <point x="411" y="-14"/>
      <point x="445" y="-6" type="curve" smooth="yes"/>
      <point x="477" y="2"/>
      <point x="505" y="14"/>
      <point x="528" y="30" type="curve"/>
    </contour>
  </outline>
</glyph>
<glyph name="uni0422" format="2">
  <advance width="480"/>
  <unicode hex="0422"/>
  <outline>
    <contour>
      <point x="190" y="-8" type="line"/>
      <point x="290" y="-8" type="line"/>
      <point x="290" y="626" type="line"/>
      <point x="468" y="626" type="line"/>
      <point x="468" y="721" type="line"/>
      <point x="12" y="721" type="line"/>
      <point x="12" y="626" type="line"/>
      <point x="190" y="626" type="line"/>
    </contour>
  </outline>
</glyph>
<glyph name="uni0428" format="2">
  <advance width="757"/>
  <unicode hex="0428"/>
  <outline>
    <contour>
      <point x="329" y="86" type="line"/>
      <point x="171" y="86" type="line"/>
      <point x="171" y="721" type="line"/>
      <point x="70" y="721" type="line"/>
      <point x="70" y="-8" type="line"/>
      <point x="685" y="-8" type="line"/>
      <point x="685" y="721" type="line"/>
      <point x="584" y="721" type="line"/>
      <point x="584" y="86" type="line"/>
      <point x="430" y="86" type="line"/>
      <point x="430" y="721" type="line"/>
      <point x="329" y="721" type="line"/>
    </contour>
  </outline>
</glyph>
<glyph name="uni0429" format="2">
  <advance width="774"/>
  <unicode hex="0429"/>
  <outline>
    <contour>
      <point x="314" y="86" type="line"/>
      <point x="156" y="86" type="line"/>
      <point x="156" y="721" type="line"/>
      <point x="55" y="721" type="line"/>
      <point x="55" y="-8" type="line"/>
      <point x="640" y="-8" type="line"/>
      <point x="640" y="-104" type="line"/>
      <point x="742" y="-104" type="line"/>
      <point x="742" y="86" type="line"/>
      <point x="670" y="86" type="line"/>
      <point x="670" y="721" type="line"/>
      <point x="569" y="721" type="line"/>
      <point x="569" y="86" type="line"/>
      <point x="415" y="86" type="line"/>
      <point x="415" y="721" type="line"/>
      <point x="314" y="721" type="line"/>
    </contour>
  </outline>
</glyph>
<glyph name="uni042B" format="2">
  <advance width="748"/>
  <unicode hex="042B"/>
  <outline>
    <contour>
      <point x="175" y="443" type="line"/>
      <point x="175" y="721" type="line"/>
      <point x="75" y="721" type="line"/>
      <point x="75" y="-8" type="line"/>
      <point x="280" y="-8" type="line" smooth="yes"/>
      <point x="292" y="-8"/>
      <point x="306" y="-7"/>
      <point x="322" y="-6" type="curve" smooth="yes"/>
      <point x="338" y="-4"/>
      <point x="353" y="-2"/>
      <point x="367" y="1" type="curve" smooth="yes"/>
      <point x="409" y="13"/>
      <point x="444" y="38"/>
      <point x="472" y="75" type="curve" smooth="yes"/>
      <point x="499" y="111"/>
      <point x="513" y="158"/>
      <point x="513" y="215" type="curve" smooth="yes"/>
      <point x="513" y="287"/>
      <point x="490" y="344"/>
      <point x="444" y="384" type="curve" smooth="yes"/>
      <point x="398" y="423"/>
      <point x="335" y="443"/>
      <point x="257" y="443" type="curve" smooth="yes"/>
    </contour>
    <contour>
      <point x="175" y="351" type="line"/>
      <point x="275" y="351" type="line" smooth="yes"/>
      <point x="291" y="351"/>
      <point x="308" y="348"/>
      <point x="324" y="343" type="curve" smooth="yes"/>
      <point x="340" y="337"/>
      <point x="354" y="328"/>
      <point x="367" y="317" type="curve" smooth="yes"/>
      <point x="379" y="306"/>
      <point x="390" y="292"/>
      <point x="398" y="276" type="curve" smooth="yes"/>
      <point x="406" y="258"/>
      <point x="410" y="239"/>
      <point x="411" y="217" type="curve" smooth="yes"/>
      <point x="408" y="169"/>
      <point x="394" y="136"/>
      <point x="368" y="116" type="curve" smooth="yes"/>
      <point x="341" y="95"/>
      <point x="308" y="85"/>
      <point x="269" y="85" type="curve" smooth="yes"/>
      <point x="175" y="85" type="line"/>
    </contour>
    <contour>
      <point x="566" y="-8" type="line"/>
      <point x="669" y="-8" type="line"/>
      <point x="669" y="721" type="line"/>
      <point x="566" y="721" type="line"/>
    </contour>
  </outline>
</glyph>
<glyph name="uni042F" format="2">
  <advance width="537"/>
  <unicode hex="042F"/>
  <outline>
    <contour>
      <point x="347" y="391" type="line"/>
      <point x="305" y="391" type="line" smooth="yes"/>
      <point x="282" y="391"/>
      <point x="262" y="392"/>
      <point x="245" y="396" type="curve" smooth="yes"/>
      <point x="227" y="399"/>
      <point x="212" y="406"/>
      <point x="200" y="416" type="curve" smooth="yes"/>
      <point x="186" y="424"/>
      <point x="176" y="436"/>
      <point x="168" y="451" type="curve" smooth="yes"/>
      <point x="160" y="465"/>
      <point x="156" y="486"/>
      <point x="156" y="512" type="curve" smooth="yes"/>
      <point x="156" y="534"/>
      <point x="159" y="553"/>
      <point x="167" y="567" type="curve" smooth="yes"/>
      <point x="173" y="581"/>
      <point x="183" y="592"/>
      <point x="196" y="601" type="curve" smooth="yes"/>
      <point x="208" y="610"/>
      <point x="222" y="617"/>
      <point x="238" y="621" type="curve" smooth="yes"/>
      <point x="254" y="624"/>
      <point x="270" y="626"/>
      <point x="287" y="626" type="curve" smooth="yes"/>
      <point x="374" y="626" type="line"/>
      <point x="374" y="391" type="line"/>
    </contour>
    <contour>
      <point x="374" y="294" type="line"/>
      <point x="374" y="-8" type="line"/>
      <point x="472" y="-8" type="line"/>
      <point x="472" y="721" type="line"/>
      <point x="290" y="721" type="line" smooth="yes"/>
      <point x="259" y="721"/>
      <point x="230" y="718"/>
      <point x="202" y="712" type="curve" smooth="yes"/>
      <point x="174" y="705"/>
      <point x="149" y="694"/>
      <point x="127" y="680" type="curve" smooth="yes"/>
      <point x="103" y="664"/>
      <point x="85" y="642"/>
      <point x="72" y="616" type="curve" smooth="yes"/>
      <point x="58" y="588"/>
      <point x="51" y="554"/>
      <point x="51" y="512" type="curve" smooth="yes"/>
      <point x="51" y="459"/>
      <point x="62" y="418"/>
      <point x="86" y="388" type="curve" smooth="yes"/>
      <point x="108" y="358"/>
      <point x="130" y="338"/>
      <point x="150" y="329" type="curve"/>
      <point x="140" y="324"/>
      <point x="127" y="309"/>
      <point x="109" y="283" type="curve" smooth="yes"/>
      <point x="90" y="257"/>
      <point x="77" y="223"/>
      <point x="70" y="181" type="curve" smooth="yes"/>
      <point x="35" y="-8" type="line"/>
      <point x="145" y="-8" type="line"/>
      <point x="170" y="145" type="line" smooth="yes"/>
      <point x="176" y="187"/>
      <point x="190" y="222"/>
      <point x="210" y="251" type="curve" smooth="yes"/>
      <point x="229" y="279"/>
      <point x="255" y="294"/>
      <point x="287" y="294" type="curve" smooth="yes"/>
      <point x="347" y="294" type="line"/>
    </contour>
  </outline>
</glyph>
<glyph name="uni0434" format="2">
  <advance width="490"/>
  <unicode hex="0434"/>
  <outline>
    <contour>
      <point x="411" y="512" type="line"/>
      <point x="123" y="512" type="line"/>
      <point x="123" y="430"/>
      <point x="119" y="353"/>
      <point x="112" y="282" type="curve" smooth="yes"/>
      <point x="104" y="210"/>
      <point x="94" y="143"/>
      <point x="81" y="79" type="curve"/>
      <point x="18" y="79" type="line"/>
      <point x="18" y="-75" type="line"/>
      <point x="109" y="-75" type="line"/>
      <point x="109" y="-8" type="line"/>
      <point x="381" y="-8" type="line"/>
      <point x="381" y="-75" type="line"/>
      <point x="471" y="-75" type="line"/>
      <point x="471" y="79" type="line"/>
      <point x="411" y="79" type="line"/>
    </contour>
    <contour>
      <point x="174" y="79" type="line"/>
      <point x="185" y="129"/>
      <point x="194" y="185"/>
      <point x="202" y="248" type="curve" smooth="yes"/>
      <point x="208" y="310"/>
      <point x="212" y="369"/>
      <point x="214" y="425" type="curve"/>
      <point x="319" y="425" type="line"/>
      <point x="319" y="79" type="line"/>
    </contour>
  </outline>
</glyph>
<glyph name="uni0437" format="2">
  <advance width="421"/>
  <unicode hex="0437"/>
  <outline>
    <contour>
      <point x="129" y="377" type="line"/>
      <point x="129" y="401"/>
      <point x="136" y="417"/>
      <point x="152" y="425" type="curve" smooth="yes"/>
      <point x="166" y="433"/>
      <point x="186" y="437"/>
      <point x="211" y="437" type="curve" smooth="yes"/>
      <point x="233" y="437"/>
      <point x="252" y="431"/>
      <point x="267" y="420" type="curve" smooth="yes"/>
      <point x="281" y="408"/>
      <point x="289" y="394"/>
      <point x="289" y="377" type="curve" smooth="yes"/>
      <point x="289" y="355"/>
      <point x="282" y="338"/>
      <point x="268" y="327" type="curve" smooth="yes"/>
      <point x="254" y="315"/>
      <point x="230" y="310"/>
      <point x="198" y="310" type="curve" smooth="yes"/>
      <point x="149" y="310" type="line"/>
      <point x="149" y="224" type="line"/>
      <point x="198" y="224" type="line" smooth="yes"/>
      <point x="226" y="224"/>
      <point x="249" y="217"/>
      <point x="267" y="204" type="curve" smooth="yes"/>
      <point x="285" y="190"/>
      <point x="294" y="171"/>
      <point x="294" y="145" type="curve" smooth="yes"/>
      <point x="294" y="121"/>
      <point x="286" y="102"/>
      <point x="270" y="89" type="curve" smooth="yes"/>
      <point x="253" y="75"/>
      <point x="232" y="68"/>
      <point x="206" y="68" type="curve" smooth="yes"/>
      <point x="180" y="68"/>
      <point x="160" y="73"/>
      <point x="147" y="84" type="curve" smooth="yes"/>
      <point x="133" y="94"/>
      <point x="127" y="109"/>
      <point x="127" y="130" type="curve"/>
      <point x="25" y="130" type="line"/>
      <point x="25" y="78"/>
      <point x="43" y="40"/>
      <point x="79" y="17" type="curve" smooth="yes"/>
      <point x="114" y="-7"/>
      <point x="157" y="-19"/>
      <point x="208" y="-19" type="curve" smooth="yes"/>
      <point x="234" y="-19"/>
      <point x="258" y="-15"/>
      <point x="281" y="-7" type="curve" smooth="yes"/>
      <point x="303" y="1"/>
      <point x="323" y="13"/>
      <point x="340" y="27" type="curve" smooth="yes"/>
      <point x="356" y="41"/>
      <point x="369" y="59"/>
      <point x="379" y="80" type="curve" smooth="yes"/>
      <point x="387" y="100"/>
      <point x="392" y="120"/>
      <point x="392" y="141" type="curve" smooth="yes"/>
      <point x="392" y="166"/>
      <point x="388" y="188"/>
      <point x="380" y="206" type="curve" smooth="yes"/>
      <point x="372" y="223"/>
      <point x="362" y="237"/>
      <point x="350" y="248" type="curve" smooth="yes"/>
      <point x="344" y="252"/>
      <point x="338" y="256"/>
      <point x="333" y="260" type="curve" smooth="yes"/>
      <point x="327" y="262"/>
      <point x="320" y="265"/>
      <point x="314" y="268" type="curve"/>
      <point x="317" y="269"/>
      <point x="322" y="271"/>
      <point x="328" y="275" type="curve" smooth="yes"/>
      <point x="333" y="277"/>
      <point x="340" y="282"/>
      <point x="348" y="288" type="curve" smooth="yes"/>
      <point x="358" y="298"/>
      <point x="366" y="311"/>
      <point x="374" y="327" type="curve" smooth="yes"/>
      <point x="381" y="342"/>
      <point x="385" y="360"/>
      <point x="385" y="380" type="curve" smooth="yes"/>
      <point x="385" y="402"/>
      <point x="379" y="422"/>
      <point x="369" y="442" type="curve" smooth="yes"/>
      <point x="357" y="460"/>
      <point x="344" y="475"/>
      <point x="328" y="486" type="curve" smooth="yes"/>
      <point x="311" y="498"/>
      <point x="292" y="508"/>
      <point x="271" y="515" type="curve" smooth="yes"/>
      <point x="249" y="521"/>
      <point x="228" y="524"/>
      <point x="208" y="524" type="curve" smooth="yes"/>
      <point x="152" y="524"/>
      <point x="109" y="510"/>
      <point x="79" y="483" type="curve" smooth="yes"/>
      <point x="47" y="455"/>
      <point x="32" y="420"/>
      <point x="32" y="377" type="curve"/>
    </contour>
  </outline>
</glyph>
<glyph name="uni043D" format="2">
  <advance width="462"/>
  <unicode hex="043D"/>
  <outline>
    <contour>
      <point x="51" y="-8" type="line"/>
      <point x="142" y="-8" type="line"/>
      <point x="142" y="218" type="line"/>
      <point x="319" y="218" type="line"/>
      <point x="319" y="-8" type="line"/>
      <point x="411" y="-8" type="line"/>
      <point x="411" y="512" type="line"/>
      <point x="319" y="512" type="line"/>
      <point x="319" y="305" type="line"/>
      <point x="142" y="305" type="line"/>
      <point x="142" y="512" type="line"/>
      <point x="51" y="512" type="line"/>
    </contour>
  </outline>
</glyph>
<glyph name="uni0448" format="2">
  <advance width="571"/>
  <unicode hex="0448"/>
  <outline>
    <contour>
      <point x="239" y="79" type="line"/>
      <point x="138" y="79" type="line"/>
      <point x="138" y="512" type="line"/>
      <point x="47" y="512" type="line"/>
      <point x="47" y="-8" type="line"/>
      <point x="516" y="-8" type="line"/>
      <point x="516" y="512" type="line"/>
      <point x="424" y="512" type="line"/>
      <point x="424" y="79" type="line"/>
      <point x="331" y="79" type="line"/>
      <point x="331" y="512" type="line"/>
      <point x="239" y="512" type="line"/>
    </contour>
  </outline>
</glyph>
<glyph name="uni044F" format="2">
  <advance width="453"/>
  <unicode hex="044F"/>
  <outline>
    <contour>
      <point x="292" y="285" type="line"/>
      <point x="237" y="285" type="line" smooth="yes"/>
      <point x="221" y="285"/>
      <point x="208" y="286"/>
      <point x="197" y="288" type="curve" smooth="yes"/>
      <point x="185" y="290"/>
      <point x="174" y="293"/>
      <point x="166" y="298" type="curve" smooth="yes"/>
      <point x="158" y="302"/>
      <point x="151" y="310"/>
      <point x="146" y="320" type="curve" smooth="yes"/>
      <point x="140" y="330"/>
      <point x="138" y="343"/>
      <point x="138" y="361" type="curve" smooth="yes"/>
      <point x="138" y="375"/>
      <point x="140" y="386"/>
      <point x="146" y="395" type="curve" smooth="yes"/>
      <point x="150" y="403"/>
      <point x="157" y="410"/>
      <point x="166" y="414" type="curve" smooth="yes"/>
      <point x="173" y="418"/>
      <point x="183" y="421"/>
      <point x="196" y="423" type="curve" smooth="yes"/>
      <point x="208" y="424"/>
      <point x="219" y="425"/>
      <point x="230" y="425" type="curve" smooth="yes"/>
      <point x="306" y="425" type="line"/>
      <point x="306" y="285" type="line"/>
    </contour>
    <contour>
      <point x="306" y="196" type="line"/>
      <point x="306" y="-8" type="line"/>
      <point x="398" y="-8" type="line"/>
      <point x="398" y="512" type="line"/>
      <point x="234" y="512" type="line" smooth="yes"/>
      <point x="209" y="512"/>
      <point x="186" y="510"/>
      <point x="164" y="506" type="curve" smooth="yes"/>
      <point x="141" y="502"/>
      <point x="121" y="494"/>
      <point x="103" y="483" type="curve" smooth="yes"/>
      <point x="83" y="471"/>
      <point x="67" y="456"/>
      <point x="57" y="436" type="curve" smooth="yes"/>
      <point x="46" y="415"/>
      <point x="41" y="390"/>
      <point x="41" y="361" type="curve" smooth="yes"/>
      <point x="41" y="323"/>
      <point x="50" y="292"/>
      <point x="69" y="269" type="curve" smooth="yes"/>
      <point x="87" y="245"/>
      <point x="101" y="231"/>
      <point x="110" y="228" type="curve"/>
      <point x="109" y="227"/>
      <point x="101" y="218"/>
      <point x="86" y="201" type="curve" smooth="yes"/>
      <point x="70" y="183"/>
      <point x="59" y="159"/>
      <point x="55" y="129" type="curve" smooth="yes"/>
      <point x="29" y="-8" type="line"/>
      <point x="130" y="-8" type="line"/>
      <point x="148" y="103" type="line" smooth="yes"/>
      <point x="152" y="136"/>
      <point x="163" y="160"/>
      <point x="180" y="175" type="curve" smooth="yes"/>
      <point x="196" y="189"/>
      <point x="228" y="196"/>
      <point x="274" y="196" type="curve" smooth="yes"/>
      <point x="292" y="196" type="line"/>
    </contour>
  </outline>
</glyph>
<glyph name="uni0451" format="2">
  <advance width="480"/>
  <unicode hex="0451"/>
  <outline>
    <contour>
      <point x="92" y="670" type="line"/>
      <point x="92" y="543" type="line"/>
      <point x="211" y="543" type="line"/>
      <point x="211" y="670" type="line"/>
    </contour>
    <contour>
      <point x="280" y="670" type="line"/>
      <point x="280" y="543" type="line"/>
      <point x="400" y="543" type="line"/>
      <point x="400" y="670" type="line"/>
    </contour>
    <contour>
      <point x="431" y="90" type="line"/>
      <point x="398" y="79"/>
      <point x="373" y="73"/>
      <point x="357" y="71" type="curve" smooth="yes"/>
      <point x="340" y="69"/>
      <point x="328" y="68"/>
      <point x="321" y="68" type="curve" smooth="yes"/>
      <point x="304" y="68"/>
      <point x="285" y="70"/>
      <point x="264" y="74" type="curve" smooth="yes"/>
      <point x="242" y="77"/>
      <point x="226" y="81"/>
      <point x="217" y="87" type="curve" smooth="yes"/>
      <point x="185" y="105"/>
      <point x="164" y="129"/>
      <point x="152" y="157" type="curve" smooth="yes"/>
      <point x="140" y="184"/>
      <point x="133" y="209"/>
      <point x="131" y="231" type="curve"/>
      <point x="445" y="231" type="line"/>
      <point x="445" y="268" type="line" smooth="yes"/>
      <point x="445" y="300"/>
      <point x="442" y="331"/>
      <point x="438" y="359" type="curve" smooth="yes"/>
      <point x="433" y="387"/>
      <point x="424" y="412"/>
      <point x="411" y="436" type="curve" smooth="yes"/>
      <point x="394" y="463"/>
      <point x="372" y="485"/>
      <point x="346" y="501" type="curve" smooth="yes"/>
      <point x="319" y="516"/>
      <point x="289" y="524"/>
      <point x="257" y="524" type="curve" smooth="yes"/>
      <point x="184" y="524"/>
      <point x="128" y="499"/>
      <point x="89" y="450" type="curve" smooth="yes"/>
      <point x="49" y="400"/>
      <point x="29" y="338"/>
      <point x="29" y="263" type="curve" smooth="yes"/>
      <point x="29" y="217"/>
      <point x="36" y="177"/>
      <point x="50" y="142" type="curve" smooth="yes"/>
      <point x="63" y="106"/>
      <point x="80" y="76"/>
      <point x="100" y="53" type="curve" smooth="yes"/>
      <point x="122" y="28"/>
      <point x="152" y="10"/>
      <point x="188" y="-2" type="curve" smooth="yes"/>
      <point x="224" y="-13"/>
      <point x="262" y="-19"/>
      <point x="302" y="-19" type="curve" smooth="yes"/>
      <point x="324" y="-19"/>
      <point x="345" y="-17"/>
      <point x="365" y="-14" type="curve" smooth="yes"/>
      <point x="385" y="-10"/>
      <point x="407" y="-4"/>
      <point x="431" y="4" type="curve"/>
    </contour>
    <contour>
      <point x="327" y="392" type="curve" smooth="yes"/>
      <point x="333" y="380"/>
      <point x="338" y="365"/>
      <point x="340" y="349" type="curve" smooth="yes"/>
      <point x="341" y="332"/>
      <point x="342" y="321"/>
      <point x="342" y="317" type="curve"/>
      <point x="132" y="317" type="line"/>
      <point x="134" y="349"/>
      <point x="147" y="378"/>
      <point x="170" y="402" type="curve" smooth="yes"/>
      <point x="192" y="425"/>
      <point x="220" y="437"/>
      <point x="254" y="437" type="curve" smooth="yes"/>
      <point x="270" y="437"/>
      <point x="284" y="433"/>
      <point x="296" y="426" type="curve" smooth="yes"/>
      <point x="307" y="418"/>
      <point x="317" y="406"/>
    </contour>
  </outline>
</glyph>
<glyph name="uni2117" format="2">
  <advance width="838"/>
  <unicode hex="2117"/>
  <outline>
    <contour>
      <point x="753" y="331" type="curve" smooth="yes"/>
      <point x="753" y="279"/>
      <point x="744" y="233"/>
      <point x="726" y="192" type="curve" smooth="yes"/>
      <point x="708" y="150"/>
      <point x="684" y="113"/>
      <point x="654" y="83" type="curve" smooth="yes"/>
      <point x="624" y="53"/>
      <point x="588" y="29"/>
      <point x="548" y="12" type="curve" smooth="yes"/>
      <point x="507" y="-6"/>
      <point x="464" y="-15"/>
      <point x="419" y="-15" type="curve" smooth="yes"/>
      <point x="373" y="-15"/>
      <point x="330" y="-6"/>
      <point x="290" y="12" type="curve" smooth="yes"/>
      <point x="249" y="29"/>
      <point x="214" y="53"/>
      <point x="184" y="83" type="curve" smooth="yes"/>
      <point x="154" y="113"/>
      <point x="130" y="150"/>
      <point x="112" y="192" type="curve" smooth="yes"/>
      <point x="94" y="233"/>
      <point x="85" y="279"/>
      <point x="85" y="331" type="curve" smooth="yes"/>
      <point x="85" y="383"/>
      <point x="94" y="430"/>
      <point x="112" y="472" type="curve" smooth="yes"/>
      <point x="130" y="513"/>
      <point x="154" y="549"/>
      <point x="184" y="580" type="curve" smooth="yes"/>
      <point x="214" y="610"/>
      <point x="249" y="634"/>
      <point x="290" y="652" type="curve" smooth="yes"/>
      <point x="330" y="670"/>
      <point x="373" y="679"/>
      <point x="419" y="679" type="curve" smooth="yes"/>
      <point x="464" y="679"/>
      <point x="507" y="670"/>
      <point x="548" y="652" type="curve" smooth="yes"/>
      <point x="588" y="634"/>
      <point x="624" y="610"/>
      <point x="654" y="580" type="curve" smooth="yes"/>
      <point x="684" y="549"/>
      <point x="708" y="513"/>
      <point x="726" y="472" type="curve" smooth="yes"/>
      <point x="744" y="430"/>
      <point x="753" y="383"/>
    </contour>
    <contour>
      <point x="829" y="331" type="curve" smooth="yes"/>
      <point x="829" y="392"/>
      <point x="818" y="448"/>
      <point x="797" y="498" type="curve" smooth="yes"/>
      <point x="775" y="548"/>
      <point x="745" y="591"/>
      <point x="708" y="629" type="curve" smooth="yes"/>
      <point x="670" y="666"/>
      <point x="627" y="696"/>
      <point x="578" y="718" type="curve" smooth="yes"/>
      <point x="528" y="740"/>
      <point x="475" y="751"/>
      <point x="419" y="751" type="curve" smooth="yes"/>
      <point x="362" y="751"/>
      <point x="309" y="740"/>
      <point x="260" y="718" type="curve" smooth="yes"/>
      <point x="210" y="696"/>
      <point x="167" y="666"/>
      <point x="130" y="629" type="curve" smooth="yes"/>
      <point x="92" y="591"/>
      <point x="63" y="548"/>
      <point x="42" y="498" type="curve" smooth="yes"/>
      <point x="20" y="448"/>
      <point x="9" y="392"/>
      <point x="9" y="331" type="curve" smooth="yes"/>
      <point x="9" y="270"/>
      <point x="20" y="215"/>
      <point x="42" y="165" type="curve" smooth="yes"/>
      <point x="63" y="115"/>
      <point x="92" y="71"/>
      <point x="130" y="34" type="curve" smooth="yes"/>
      <point x="167" y="-3"/>
      <point x="210" y="-33"/>
      <point x="260" y="-55" type="curve" smooth="yes"/>
      <point x="309" y="-76"/>
      <point x="362" y="-87"/>
      <point x="419" y="-87" type="curve" smooth="yes"/>
      <point x="475" y="-87"/>
      <point x="528" y="-76"/>
      <point x="578" y="-55" type="curve" smooth="yes"/>
      <point x="627" y="-33"/>
      <point x="670" y="-3"/>
      <point x="708" y="34" type="curve" smooth="yes"/>
      <point x="745" y="71"/>
      <point x="775" y="115"/>
      <point x="797" y="165" type="curve" smooth="yes"/>
      <point x="818" y="215"/>
      <point x="829" y="270"/>
    </contour>
    <contour>
      <point x="630" y="435" type="curve" smooth="yes"/>
      <point x="630" y="465"/>
      <point x="624" y="492"/>
      <point x="613" y="515" type="curve" smooth="yes"/>
      <point x="601" y="537"/>
      <point x="586" y="555"/>
      <point x="567" y="567" type="curve" smooth="yes"/>
      <point x="548" y="579"/>
      <point x="528" y="588"/>
      <point x="507" y="594" type="curve" smooth="yes"/>
      <point x="485" y="600"/>
      <point x="462" y="603"/>
      <point x="438" y="603" type="curve" smooth="yes"/>
      <point x="294" y="603" type="line"/>
      <point x="294" y="50" type="line"/>
      <point x="381" y="50" type="line"/>
      <point x="381" y="267" type="line"/>
      <point x="390" y="267" type="line"/>
      <point x="436" y="267" type="line" smooth="yes"/>
      <point x="461" y="267"/>
      <point x="485" y="270"/>
      <point x="507" y="276" type="curve" smooth="yes"/>
      <point x="529" y="281"/>
      <point x="549" y="290"/>
      <point x="567" y="303" type="curve" smooth="yes"/>
      <point x="586" y="316"/>
      <point x="601" y="334"/>
      <point x="613" y="358" type="curve" smooth="yes"/>
      <point x="624" y="380"/>
      <point x="630" y="406"/>
    </contour>
    <contour>
      <point x="381" y="348" type="line"/>
      <point x="381" y="524" type="line"/>
      <point x="441" y="524" type="line" smooth="yes"/>
      <point x="452" y="524"/>
      <point x="464" y="522"/>
      <point x="477" y="519" type="curve" smooth="yes"/>
      <point x="489" y="515"/>
      <point x="500" y="510"/>
      <point x="511" y="504" type="curve" smooth="yes"/>
      <point x="518" y="498"/>
      <point x="525" y="489"/>
      <point x="533" y="479" type="curve" smooth="yes"/>
      <point x="539" y="467"/>
      <point x="543" y="453"/>
      <point x="543" y="435" type="curve" smooth="yes"/>
      <point x="543" y="420"/>
      <point x="539" y="407"/>
      <point x="533" y="395" type="curve" smooth="yes"/>
      <point x="526" y="383"/>
      <point x="518" y="373"/>
      <point x="508" y="367" type="curve" smooth="yes"/>
      <point x="499" y="359"/>
      <point x="489" y="354"/>
      <point x="477" y="352" type="curve" smooth="yes"/>
      <point x="465" y="349"/>
      <point x="450" y="348"/>
      <point x="434" y="348" type="curve" smooth="yes"/>
      <point x="390" y="348" type="line"/>
    </contour>
  </outline>
</glyph>
